<?xml version="1.0" encoding="UTF-8"?> <!-- Generator: Adobe Illustrator 25.0.0, SVG Export Plug-In . SVG Version: 6.00 Build 0) --> <svg xmlns="http://www.w3.org/2000/svg" xmlns:xlink="http://www.w3.org/1999/xlink" version="1.1" id="Capa_1" x="0px" y="0px" viewBox="0 0 290 100" style="enable-background:new 0 0 290 100;" xml:space="preserve"> <style type="text/css"> .st0{fill:#FFFFFF;} </style> <g> <path class="st0" d="M197.5,24.2c-0.1,0.6-0.1,1.1-0.2,1.7h0l-0.2,5v0c0,0.2,0,0.3-0.1,0.5c-0.1,0.6-0.1,1.1-0.2,1.7 c-0.1,1.1-0.2,2.2-0.3,3.4c0,0.1,0,0.3,0,0.4c0,0.2,0,0.5,0,0.7l0,0l-0.5,3.2c-0.2,1.2-0.3,2.4-0.5,3.7c0,0.3,0,0.7,0,1 c0,0.3,0,0.5,0,0.8c0,0.1,0,0.1,0,0.1c0,0,0,0,0,0h0.1c0.3,0,0.5,0,0.8,0c0.3,0,0.5,0,0.8,0c0.2,0,0.3,0,0.5,0c0.2,0,0.4,0,0.6,0 c0.7-0.1,1.5-0.1,2.2-0.2l1.4-0.1v0.1h0h0.2c0.1,0,0.1,0,0.1,0c0,0,0,0,0-0.1c0-0.4,0.1-0.7,0.1-1.1c0-0.3,0.1-0.5,0.1-0.8 c0.1-1.2,0.1-2.4,0.1-3.6l0-0.6c0-0.2,0-0.3,0-0.5c0-0.1,0-0.2,0-0.4l0-1.6l0.2-1c0-0.8,0.1-1.5,0.1-2.3c0.1-1,0.1-2.1,0.2-3.1 c0.1-1.1,0.1-2.4,0.3-3.7c0,0,0,0,0-0.1h0l0.2-2.5l0.1-0.5c0-0.4,0-0.7,0.1-1c0-0.2,0.1-0.4,0.1-0.7c0-0.4,0.1-0.8,0.1-1.1 c0-0.2,0.1-0.5,0.1-0.7c0-0.1,0-0.3,0-0.4c0-0.4,0.1-0.9,0.2-1.2c0-0.1,0.1-0.3,0.1-0.4v-1l0.1-0.1l0,0c0-0.1,0-0.3,0.1-0.4 c0-0.2,0-0.4,0.1-0.6c0-0.3,0-0.6,0.1-0.9c-0.2,0-0.3,0-0.4-0.1l-0.5-0.3l-0.3,0.3c-0.3,0.3-0.6,0.3-0.8,0.3c0,0-0.1,0-0.1,0 c-0.1,0-0.1,0.1-0.2,0.1c-0.1,0.1-0.2,0.2-0.4,0.3c-1.1,0.2-2.2,0.6-3.4,1c-0.3,0.1-0.4,0.2-0.4,0.5c-0.1,0.6-0.1,1.2-0.2,1.7 l0,0.3c-0.1,0.7-0.2,1.4-0.2,2c0,0.5-0.1,1-0.1,1.5C197.5,23.7,197.5,23.9,197.5,24.2z"></path> <path class="st0" d="M200,14c0.2-0.1,0.3-0.3,0.6-0.4c0.8-0.3,1.6-0.5,2.4-0.7c0.6-0.1,1.3-0.3,1.9-0.6c0-0.2,0.1-0.3,0.3-0.4 c0-0.2,0-0.4,0.1-0.6c0-0.1,0.1-0.2,0.1-0.3c0-0.1,0.1-0.2,0.1-0.4c0.1-0.3,0.1-0.5,0.1-0.8c0-0.2,0-0.5,0.1-0.7 c0.1-0.6,0.2-1.3,0.3-1.9c0-0.3,0.1-0.7,0.1-1c0-0.1,0-0.1,0-0.2c0-0.2,0.1-0.4,0-0.5c-2.4,0.6-4.6,1.2-6.4,1.8 c-0.1,0.3-0.2,0.6-0.1,0.9c0,0.2,0,0.3,0,0.4c0.1,0.1,0.2,0.3,0.2,0.5c0,0.2,0,0.3-0.1,0.5c0,0.4-0.1,0.8-0.2,1.2 c-0.4,1.2-0.5,2.1-0.4,3c0,0.2,0,0.3-0.2,0.4c0,0,0,0.1-0.1,0.2c0,0,0,0.1,0,0.1c0.4-0.1,0.7-0.2,1-0.4C199.9,14.1,200,14.1,200,14 z"></path> <path class="st0" d="M192.9,16.7l0.4,0.4c1-0.6,2-1.1,2.9-1.5c0.1-0.1,0.1-0.1,0.1-0.1s0,0-0.1-0.2c0-0.1-0.1-0.2-0.1-0.3l0-0.1 l0.1-0.1c0,0,0.1-0.1,0.1-0.2c0-0.1,0.1-0.3,0.3-0.5c0,0,0-0.1,0-0.1c0-0.1,0-0.2,0.1-0.3c0.1-0.1,0.1-0.2,0.2-0.4 c0-0.1,0-0.2,0.1-0.4c0.1-0.4,0.2-0.9,0.2-1.4c0-0.2,0.1-0.5,0.1-0.7c0.1-0.5,0.2-1-0.1-1.5l-0.1-0.1l0-0.1c0.1-0.4,0.1-0.7,0.1-1 c-1.4,0.5-2.6,1-3.5,1.4c0,0.1-0.1,0.1-0.1,0.2c0,0.1,0.1,0.2,0,0.3l-0.1,0.3c-0.2,0.6-0.3,1.2-0.4,1.8c-0.1,0.7-0.2,1.5-0.3,2.2 c0,0.1,0,0.2,0,0.3c0,0.3-0.1,0.7-0.3,1.1c-0.2,0.2-0.1,0.5,0.1,0.8C192.9,16.5,192.9,16.6,192.9,16.7z"></path> <path class="st0" d="M191.2,46.9c0.2-0.3,0.4-0.3,0.5-0.3c0.3,0,0.6-0.1,0.8-0.1c0.3,0,0.6,0,0.9-0.1c0.1,0,0.1,0,0.1,0 c0-0.3,0.1-0.6,0.2-0.9c0.1-0.6,0.2-1.2,0.3-1.9c0.1-0.9,0.2-1.9,0.3-2.8c0-0.1,0-0.3,0-0.3l0.2-2.3l0.1-0.1c0-0.7,0.1-1.3,0.2-2 c0.1-0.7,0.1-1.5,0.2-2.3l0.1-1.3c0.1-0.7,0.1-1.5,0.2-2.2c0-0.2,0-0.3,0-0.5c0-0.2,0-0.5,0-0.8c0,0,0,0,0-0.1h0l-0.2-3.7l0,0 c0-0.2,0-0.3-0.1-0.5l0-0.1l0.1-0.8c0-0.2,0-0.4,0.1-0.5c0-0.3,0.1-0.7,0.2-1c0.1-0.2,0.1-0.4,0.1-0.6c0-0.3,0-0.7,0.3-1 c0-0.1,0-0.2,0-0.2c0-0.2-0.1-0.5,0.1-0.7c0.1-0.2,0.1-0.4,0.1-0.6c0-0.3,0-0.6,0.2-0.9c0-0.1,0-0.1-0.1-0.1 c-0.1,0-0.2,0.1-0.2,0.1c-0.1,0-0.1,0.1-0.2,0.1c-0.1,0-0.2,0.1-0.2,0.1c-0.3,0.2-0.7,0.4-1,0.6c-0.4,0.2-0.8,0.5-1.2,0.7 c-0.2,0.1-0.3,0.2-0.5,0.2l0,0.3c0,0.3,0,0.6-0.1,0.9c0,0,0,0.1,0,0.1c0,0.2-0.1,0.4-0.2,0.4c0,0.1,0,0.2,0,0.3 c0,0.4-0.1,0.9-0.1,1.4c-0.1,0.5-0.1,1-0.2,1.4c-0.1,0.6-0.2,1.3-0.2,1.9c-0.1,0.3-0.1,0.6-0.2,0.8l-0.1,0.5 c-0.2,0.8-0.4,2.1-0.2,2.8l0,0.1l0,0.1c-0.1,0.6-0.2,1.2-0.3,1.8c-0.1,0.8-0.3,1.6-0.3,2.3c-0.1,0.9-0.2,1.7-0.3,2.6 c-0.1,0.4-0.1,0.9-0.2,1.3l-0.3,1.8l-0.3,0l0.3,0l-0.1,0.5c-0.1,0.3-0.1,0.6-0.2,1c0,0.5-0.1,0.9-0.2,1.4l0,0.1c0,0.1,0,0.1,0,0.2 c0,0,0,0,0,0l0.1,0l0.1,0.2c0,0.1,0,0.2-0.1,0.3c-0.1,0.1-0.1,0.2-0.1,0.4c0,0.2-0.1,0.3-0.1,0.5c-0.1,0.1-0.1,0.2-0.1,0.3 c0,0.1,0,0.3-0.1,0.5c-0.1,0.2-0.1,0.2-0.1,0.2c0,0,0.1,0,0.4,0.1L191.2,46.9z"></path> <path class="st0" d="M219.5,10.4L219.5,10.4c0.1,0,0.1,0,0.1,0l0.2,0v0c0,0,0.1,0,0.1,0h0.1c0.1,0,0.3,0,0.4,0h0.3v0 c0.3,0,0.7,0,1,0l1.4,0l1.5,0c0.4,0,0.7,0,1.1,0l0.2,0c0.1,0,0.3,0,0.4,0h0.1c0.1,0,0.2,0,0.4,0h0h0c0.6,0,1.3,0,2,0.1 c0.4,0,0.8,0.1,1.2,0.1c-0.1-0.5-0.2-0.9-0.2-1.4c-0.3-2-0.5-3.9-0.6-5.6c-1.8-0.1-3.4-0.2-4.5-0.2c-1.1,0-1.7,0-1.7,0h-0.2 c-1.9,0-3.8,0.1-5.6,0.3c-0.1,1.7-0.3,3.5-0.6,5.5c-0.1,0.5-0.1,0.9-0.2,1.4c0.4,0,0.8-0.1,1.2-0.1 C218.2,10.4,218.9,10.4,219.5,10.4z"></path> <path class="st0" d="M206.8,11.9c0.2,0,0.5,0,0.7-0.1c0.3-0.1,0.7-0.2,1-0.2c0.3,0,0.6-0.1,0.8-0.2c0.4-0.1,0.8-0.1,1.1-0.2 c0.2,0,0.4,0,0.6-0.1c0.3-0.1,0.6-0.1,0.9-0.2c0.5-0.1,1-0.2,1.5-0.2l0.6-0.1l0-0.3v0c0-0.2,0.1-0.4,0.1-0.6l0-0.2 c0.1-1,0.3-2.1,0.5-3.1c0-0.1,0-0.2,0.1-0.4c0.1-0.8,0.2-1.6,0.3-2.4c-2.6,0.3-5.1,0.7-7.4,1.3c0,0-0.1,0-0.1,0 c-0.1,0-0.2,0.1-0.2,0.2c0,0.3-0.1,0.7-0.1,1l0,0.1c0,0.2-0.1,0.4-0.1,0.6c-0.1,0.4-0.1,0.8-0.2,1.1c0,0.2,0,0.5-0.1,0.7 c0,0.4-0.1,0.9-0.1,1.3c0,0.1,0,0.2-0.1,0.3c-0.1,0.4-0.2,0.8-0.1,1.2C206.6,11.9,206.7,11.9,206.8,11.9 C206.7,11.9,206.7,11.9,206.8,11.9z"></path> <path class="st0" d="M243.7,16.1c-0.1-0.1-0.1-0.1-0.2-0.1c0,0-0.1,0-0.1,0c-0.2,0-0.5-0.1-0.8-0.3l-0.3-0.3l-0.4,0.3 c-0.1,0.1-0.2,0.1-0.4,0.1c0.1,0.3,0.1,0.6,0.1,0.9c0,0.2,0,0.4,0,0.6c0,0.1,0.1,0.2,0.1,0.4l0.1,0.1v0.8l0,0 c0,0.2,0.1,0.5,0.1,0.7c0.1,0.4,0.1,0.9,0.2,1.3l0,0.4c0,0.2,0.1,0.5,0.1,0.7c0.1,0.4,0.1,0.7,0.1,1.1c0,0.2,0,0.4,0.1,0.7 c0.1,0.3,0.1,0.7,0.1,1l0.2,0.1l0,0.2c0,0.3,0,0.6,0.1,0.9l0,0.3c0,0.4,0.1,0.8,0.2,1.2l0.1,0.3l-0.2,0c0,0,0,0,0,0.1 c0.2,1.3,0.2,2.5,0.3,3.7c0.1,1.1,0.1,2.2,0.2,3.3c0,0.7,0.1,1.4,0.1,2.1l0.2,0.1l0,0.2l0,1.7h0l0,0.6c0,0.1,0,0.2,0,0.3 c0,0.2,0,0.3,0,0.5l0,0.5c0,1.2,0.1,2.4,0.1,3.6c0,0.3,0.1,0.5,0.1,0.8c0,0.4,0.1,0.7,0.1,1.1c0,0.1,0,0.1,0,0.1c0,0,0,0,0.1,0h0.2 h0V46l0.3,0.1l1.2,0.1c0.7,0.1,1.5,0.1,2.2,0.2c0.2,0,0.4,0,0.6,0c0.2,0,0.3,0,0.5,0c0.3,0,0.5,0,0.8,0c0.3,0,0.5,0,0.8,0h0.1 c0,0,0,0,0,0c0,0,0-0.1,0-0.1c0-0.3,0-0.5,0-0.8c0-0.4,0-0.7,0-1c-0.2-1.2-0.3-2.5-0.5-3.7l-0.1-0.5l-0.5-2.7v0c0-0.2,0-0.5,0-0.7 c0-0.1,0-0.3,0-0.4c-0.1-1.2-0.1-2.3-0.3-3.4c-0.1-0.6-0.1-1.1-0.2-1.7c0-0.2,0-0.3-0.1-0.5h0l-0.2-5c0-0.6-0.1-1.1-0.2-1.7 c0-0.3-0.1-0.6-0.1-0.8c-0.1-0.5-0.1-1-0.1-1.5c0-0.6-0.1-1.3-0.2-1.9l-0.1-0.4c-0.1-0.6-0.1-1.2-0.2-1.7c0-0.3-0.1-0.4-0.4-0.5 c-1.2-0.4-2.3-0.7-3.4-1C244,16.3,243.8,16.2,243.7,16.1z"></path> <path class="st0" d="M240.1,6.2c0,0.3,0.1,0.7,0.1,1.1c0.1,0.6,0.1,1.3,0.3,1.9c0.1,0.2,0.1,0.5,0.1,0.7c0,0.3,0,0.6,0.1,0.8 c0,0.1,0.1,0.3,0.1,0.4c0,0.1,0.1,0.2,0.1,0.3c0.1,0.2,0.1,0.4,0.1,0.6c0.2,0.1,0.3,0.2,0.3,0.4c0.6,0.2,1.3,0.4,2,0.6 c0.8,0.2,1.6,0.4,2.4,0.7c0.2,0.1,0.4,0.3,0.6,0.4c0.1,0.1,0.1,0.1,0.2,0.2c0.3,0.2,0.6,0.3,1,0.4c0,0,0-0.1,0-0.1 c0-0.1,0-0.2-0.1-0.2c-0.1-0.1-0.2-0.2-0.2-0.4c0.1-0.9,0-1.8-0.4-3c-0.1-0.4-0.2-0.8-0.2-1.3c0-0.2,0-0.3-0.1-0.5 c0-0.2,0.1-0.4,0.2-0.5c-0.1-0.1-0.1-0.3,0-0.4c0.1-0.3,0-0.6-0.1-0.9c-2.2-0.8-4.4-1.5-6.4-2c0,0,0,0,0,0.1 C240,5.5,240,5.7,240,5.9C240.1,6,240.1,6.1,240.1,6.2z"></path> <path class="st0" d="M248.7,10.7c0,0.2,0.1,0.5,0.1,0.7c0,0.5,0.1,1,0.2,1.4c0,0.1,0.1,0.2,0.1,0.4c0,0.2,0,0.3,0.2,0.4l0.1,0.1 l0,0.2c0,0,0,0.1,0,0.1c0.2,0.1,0.3,0.3,0.3,0.5c0,0.1,0,0.2,0.1,0.2l0.1,0.1L250,15c0,0.2,0,0.3-0.1,0.3c-0.1,0.1-0.1,0.2,0,0.2 c0,0,0,0,0.1,0.1c0.9,0.4,1.9,0.9,2.9,1.5l0.4-0.4c0-0.1,0-0.2,0.1-0.3c0.2-0.2,0.3-0.5,0.1-0.8c-0.2-0.4-0.3-0.7-0.3-1.1 c0-0.1,0-0.2,0-0.3l0-0.2c-0.1-0.7-0.2-1.3-0.3-2c-0.1-0.6-0.2-1.2-0.4-1.8l-0.1-0.3c0-0.1,0-0.1,0-0.2c-1.2-0.6-2.4-1.1-3.5-1.6 c0,0.3,0,0.6,0.1,0.9l0,0.1l-0.1,0.1C248.5,9.7,248.6,10.2,248.7,10.7z"></path> <path class="st0" d="M253.1,19.8c-0.4-0.3-0.8-0.5-1.2-0.7c-0.4-0.2-0.7-0.4-1-0.6c-0.1-0.1-0.2-0.1-0.3-0.1 c-0.1,0-0.1-0.1-0.2-0.1c-0.1,0-0.2-0.1-0.2-0.1c0,0,0,0.1-0.1,0.1c0.2,0.3,0.2,0.6,0.2,0.9c0,0.2,0,0.4,0.1,0.6 c0.1,0.2,0.1,0.5,0.1,0.7c0,0.1,0,0.2,0,0.2c0.2,0.3,0.2,0.7,0.3,1c0,0.2,0,0.4,0.1,0.6l0.1,6.6h0c0,0,0,0,0,0.1 c0.1,0.3,0,0.6,0,0.8c0,0.2,0,0.3,0,0.5c0.1,0.9,0.2,1.7,0.2,2.6l0.1,1.5c0,0.5,0.1,1.1,0.2,1.6c0,0.4,0.1,0.8,0.1,1.1 c0,0.3,0.1,0.6,0.1,0.8c0,0,0,0,0,0l0.1,0l0.2,2.2c0,0.1,0,0.2,0,0.4c0.1,0.8,0.2,1.6,0.3,2.4l0.1,0.5c0.1,0.6,0.2,1.3,0.3,1.9 c0.1,0.3,0.1,0.6,0.2,0.9c0,0,0,0,0.1,0c0.3,0.1,0.6,0.1,0.9,0.1c0.3,0,0.5,0,0.8,0.1c0.1,0,0.4,0.1,0.5,0.3l1.7-0.2 c0.3-0.1,0.4-0.1,0.4-0.1c0,0,0-0.1-0.1-0.2c-0.1-0.2-0.1-0.3-0.1-0.5c0-0.1,0-0.2-0.1-0.3c-0.1-0.2-0.1-0.3-0.2-0.5 c0-0.2-0.1-0.3-0.1-0.4c-0.1-0.1-0.1-0.2-0.1-0.3l0-0.1l0.2-0.1c0,0,0,0,0,0c0-0.1,0-0.1,0-0.2l-0.1-0.3c-0.1-0.4-0.1-0.8-0.2-1.2 c0-0.3-0.1-0.5-0.1-0.8l-0.1-0.8l-0.3-2c0-0.3-0.1-0.7-0.1-1l0-0.2c-0.1-0.8-0.2-1.6-0.3-2.4c-0.1-0.8-0.2-1.6-0.3-2.4 c-0.1-0.6-0.2-1.2-0.3-1.8v-0.1l0-0.1c0.2-0.8-0.1-2-0.2-2.8l-0.1-0.4c-0.1-0.3-0.1-0.6-0.2-0.9c-0.1-0.8-0.2-1.5-0.3-2.2l-0.1-1.2 c0-0.3-0.1-0.6-0.1-0.9l0-0.5c0-0.1,0-0.2,0-0.3c-0.1-0.1-0.2-0.2-0.2-0.5c-0.1-0.4-0.1-0.7-0.1-1l0-0.2 C253.4,20.1,253.2,20,253.1,19.8z"></path> <path class="st0" d="M231.4,6.6c0.2,1.1,0.4,2.2,0.5,3.1c0,0.3,0.1,0.5,0.1,0.8l0,0.2c0,0,0,0.1,0,0.1l0.4,0l0.1-0.2v0.2l0.2,0 c0.5,0.1,1,0.2,1.5,0.2c0.3,0,0.6,0.1,0.9,0.2c0.2,0,0.4,0,0.6,0.1c0.4,0,0.8,0.1,1.1,0.2c0.3,0.1,0.6,0.1,0.9,0.2 c0.3,0.1,0.7,0.1,1,0.2c0.3,0.1,0.6,0.1,0.8,0.1c0,0,0-0.1,0-0.2c0-0.4,0-0.8-0.1-1.3l-0.1-0.3c-0.1-0.4-0.1-0.9-0.1-1.3 c0-0.3,0-0.5-0.1-0.8c-0.1-0.4-0.1-0.8-0.2-1.3l-0.1-0.6c-0.1-0.3-0.1-0.6-0.1-1c0-0.1-0.1-0.2-0.2-0.2c-0.4-0.1-0.7-0.2-1.1-0.4 c-2.4-0.5-4.5-0.8-6.5-1c0.1,0.8,0.2,1.7,0.3,2.6C231.4,6.3,231.4,6.5,231.4,6.6z"></path> <path class="st0" d="M206.4,15.2v0.3h-0.1c0,0.2-0.1,0.3-0.1,0.5c0,0.6-0.1,1.1,0,1.7c0,0.6,0,1.1-0.1,1.7c-0.1,0.3-0.1,0.7-0.1,1 c0,0.7-0.1,1.4-0.2,2.1c0,0.4-0.1,0.8-0.1,1.1c0,0.2,0,0.3,0,0.4c0,0.1,0,0.2,0,0.2l0,0.1c0,0.8-0.3,2.2-0.4,3l0,0.1 c-0.1,0.1-0.1,0.2-0.1,0.4c0,0,0,0,0,0.1c0.1-0.1,0.2-0.1,0.3-0.1l-0.9,10.9c-0.1,0.5-0.2,0.9-0.2,1.1l0.1,0.1l0,0.2 c-0.1,0.6-0.2,1.2-0.2,1.7c0,0.4-0.1,0.9-0.1,1.3c0,0.2-0.1,0.4-0.1,0.7c0,0.2-0.1,0.5-0.1,0.7c-0.1,0.5-0.1,0.9-0.1,1.3 c0.1-0.1,0.2-0.1,0.3-0.1l0.1,0c0.1,0,0.2,0.1,0.3,0.2c0.1,0.1,0,0.2,0,0.4c0,0,0,0,0,0h0l0.1,0c0.7,0,1.5-0.1,2.3-0.1 c0.6,0,1.1,0,1.7-0.1c0.3,0,0.7,0,1,0c0.6,0,1.2-0.1,1.8-0.1h0.1l0.1,0.1c0,0,0.1,0,0.3,0c0.2,0,0.4,0,0.5-0.1 c0-0.8,0.1-3.9,0.1-4.3c0-0.2,0.2-2.1,0.6-5.2c0.4-3.2,0.8-6.8,0.9-8c0.2-2.2,0-5,0-5c0.1-1.4,0.1-2.8,0.2-4.2 c0.1-0.9,0.1-1.7,0.1-2.5l0-0.3c-0.1-0.9-0.1-1.9-0.1-2.8v-0.3c0-0.1,0-0.3,0-0.4c-0.6,0.1-1.2,0.2-1.8,0.3c-0.1,0-0.1,0-0.2,0 c-0.1,0-0.2,0-0.3,0c-0.4,0.1-0.7,0.3-1,0.2c-0.1,0.1-0.2,0.2-0.4,0.2c-0.3,0-0.6,0.1-0.9,0.2c-0.2,0-0.4,0.1-0.5,0.1 c-0.2,0-0.5,0.1-0.7,0.1c-0.4,0.1-0.8,0.2-1.3,0.2c-0.3,0-0.4,0.1-0.5,0.2c-0.1,0.1-0.1,0.2,0,0.5l0,0l0,0.1 C206.4,15,206.4,15.1,206.4,15.2z"></path> <path class="st0" d="M218.5,22.6c0.6,0,1.2-0.1,1.8-0.1l0.3,0v0.1c0.2,0,0.5,0,0.7,0c0.2,0,0.3,0,0.4,0l0.1,0c0.2,0,0.3,0,0.5,0 l0.1,0c0.1,0,0.2,0,0.3,0c0-0.1,0-0.2,0.1-0.3l0.1-0.1c0.1,0,0.2-0.1,0.2-0.1l0,0l0,0c0.1,0,0.1,0,0.2,0.1l0.1,0.1 c0.1,0.1,0.1,0.2,0.1,0.3c0.1,0,0.2,0,0.3,0h0.1c0.2,0,0.3,0,0.5,0l0.1,0c0.1,0,0.3,0,0.4,0c0.3,0,0.5,0,0.7,0v-0.1l0.3,0 c0.6,0,1.2,0.1,1.8,0.1c0.3,0,0.7,0,1,0.1c0.7,0,1.4,0.1,2,0.2c0-0.5,0-1,0-1.4c0-0.6,0-1.2,0.1-1.7l0-0.6c0.1-0.8,0-1.7-0.1-2.8 c-0.1-0.9-0.2-1.8-0.4-3c0-0.1,0-0.2,0-0.2l-0.1-0.6c-0.2,0-0.4,0-0.6,0c-0.3,0-0.6,0-1-0.1c-1.2-0.1-2.5-0.1-3.7-0.1h-0.5 c-0.2,0-0.4,0-0.6,0c-0.2,0-0.4,0-0.7,0l-0.2,0l-0.2,0c-0.2,0-0.4,0-0.7,0c-0.2,0-0.4,0-0.6,0h-0.5c-1.2,0-2.5,0-3.7,0.1 c-0.3,0-0.6,0.1-1,0.1c-0.2,0-0.4,0-0.6,0c0,0.1,0,0.1,0,0.2c0,0.1,0,0.3-0.1,0.4c0,0.1,0,0.2,0,0.2c-0.2,0.9,0.1,1.8,0,2.9 c-0.1,1.1-0.1,2.3-0.1,3.1c0,0.2,0.1,0.9,0.1,1.2c0,0.5-0.3,0.4-0.3,0.9v0.2c0,0.4,0,0.8,0,1.2c0.7-0.1,1.3-0.1,2-0.2 C217.8,22.7,218.2,22.6,218.5,22.6z"></path> <path class="st0" d="M238.1,13.9c-0.2-0.1-0.5-0.1-0.7-0.1c-0.2,0-0.4-0.1-0.5-0.1c-0.3-0.1-0.6-0.2-0.9-0.2 c-0.2,0-0.3-0.1-0.4-0.2c-0.3,0-0.7-0.1-1-0.2l-0.1,0c-0.1,0-0.2,0-0.3,0c-0.1,0-0.1,0-0.2,0c-0.6-0.1-1.2-0.2-1.8-0.3 c0,0,0,0.2,0,0.4c0,1.7,0.2,8.4,0.2,10.1c0,0,0,0,0,0c0,0,0,0.9,0,2.4l0,0.1l-0.1,0.1c0,0,0,0,0,0.1c0,0.2,0.1,0.3,0.1,0.5l0,0.2 c0.2,10.8,0.5,18,0.8,19.2c0.5-0.1,1.3-0.1,1.8-0.1c0.6,0,1.1,0,1.7,0.1c0.3,0,0.7,0,1,0c0.6,0,1.1,0,1.7,0.1c0.8,0,1.5,0,2.3,0.1 l0.1,0c0,0,0,0,0,0c0,0,0,0,0,0c-0.1-0.1-0.1-0.2,0-0.3c0.1-0.1,0.2-0.2,0.3-0.2l0.1,0c0.1,0,0.2,0.1,0.3,0.1 c0-0.4-0.1-0.8-0.1-1.3c0-0.2-0.1-0.5-0.1-0.7c0-0.2-0.1-0.4-0.1-0.6c-0.1-0.4-0.1-0.9-0.1-1.4c0-0.6-0.1-1.2-0.2-1.7l0-0.2 l0.1-0.1c0-0.2-0.1-0.7-0.2-1.3l-0.8-10.8c0.1,0,0.2,0,0.3,0.1l0-0.1c0-0.2-0.1-0.3-0.1-0.4l0-0.1c-0.2-0.9-0.4-2.2-0.4-3l0-0.1 c0,0,0-0.1,0-0.1v0v-0.1c0-0.1,0-0.2,0-0.3c0-0.4-0.1-0.7-0.1-1.1c-0.1-0.7-0.1-1.5-0.2-2.2c0-0.3-0.1-0.7-0.1-1 c-0.1-0.5-0.2-1.1-0.1-1.7c0-0.6,0-1.1,0-1.7c0-0.2,0-0.3-0.1-0.4v0h-0.1l0-0.6c0-0.3,0-0.5,0-0.6c0-0.1-0.2-0.1-0.5-0.2 C238.9,14.1,238.5,14,238.1,13.9z"></path> <path class="st0" d="M185.2,81.7h-1.2v2.6h1.2c0.8,0,1.5-0.3,1.5-1.3C186.7,82.1,186,81.7,185.2,81.7z"></path> <path class="st0" d="M199.4,71.7v-2c0-1.2-0.8-1.8-1.9-1.8c-1.1,0-1.9,0.6-1.9,1.8v2c0,1.3,0.8,1.8,1.9,1.8 C198.6,73.5,199.4,72.9,199.4,71.7z"></path> <path class="st0" d="M186.6,79.9c0-0.9-0.7-1-1.4-1h-1.1v2.1h1.1C185.9,80.9,186.6,80.7,186.6,79.9z"></path> <polygon class="st0" points="102.6,69.7 102.4,70.9 99.6,79.1 105.7,79.1 102.9,70.9 "></polygon> <path class="st0" d="M198.5,78.8c-1.1,0-1.9,0.6-1.9,1.8v2c0,1.2,0.8,1.8,1.9,1.8c1.1,0,1.9-0.6,1.9-1.8v-2 C200.3,79.4,199.6,78.8,198.5,78.8z"></path> <path class="st0" d="M36.4,69.4c-2.7,0-4.7,1.6-4.7,4.7v5c0,3.2,2,4.6,4.7,4.6c2.7,0,4.7-1.5,4.7-4.6v-5 C41.1,71,39.1,69.4,36.4,69.4z"></path> <polygon class="st0" points="158.9,69.7 158.7,70.9 155.9,79.1 162,79.1 159.2,70.9 "></polygon> <path class="st0" d="M247.6,78.8c-1.1,0-1.9,0.6-1.9,1.8v2c0,1.2,0.8,1.8,1.9,1.8c1.1,0,1.9-0.6,1.9-1.8v-2 C249.4,79.4,248.6,78.8,247.6,78.8z"></path> <path class="st0" d="M280,58.2c0,0-9-0.4-20.8-0.8c-0.3-1.3-0.7-3.4-1.1-5.1c-0.5-2.3-0.5-2.4-0.5-2.4c-0.1-0.1-0.2-0.2-0.2-0.3 l-0.1-0.1c-0.1,0.2-0.2,0.3-0.4,0.3c-0.1,0-0.1,0-0.2,0c-0.7-0.1-1.3-0.2-1.9-0.3c-0.3,0-0.6-0.1-0.9-0.1c0,0-0.1,0-0.1,0 c0,0,0,0.1,0,0.2c0,0,1.2,5.4,1.6,7.8c-0.8,0-1.6-0.1-2.4-0.1c-0.5-2.5-1.6-7.7-1.7-8.1c0-0.1,0-0.1-0.2-0.1h-0.2h-0.5 c-0.7-0.1-1.4-0.1-2-0.1c-0.6,0-1.3,0-1.9-0.1c-0.3,0-0.7,0-0.9,0l-0.9,0h-0.2c0.1,0.8,0.6,5.7,0.8,8.1c-0.5,0-1.1,0-1.6-0.1 c-0.1-0.6-0.1-1.2-0.2-2c-0.2-2.1-0.5-5-0.5-5.2c0-0.1-0.1-0.2-0.1-0.3c-0.2-0.1-0.5-0.3-0.5-0.8c0,0,0,0.1,0.1,0.1l-0.1-0.3l0,0.3 h-0.2c-0.3,0-0.6,0-0.8,0c-0.5,0-0.9,0-1.4,0c-0.6,0-1.2,0-1.8,0c-0.5,0-1,0-1.5,0h-0.3l-0.9,0c-0.4,0-0.8,0-1.3,0.1 c0,0.2,0,0.3,0.1,0.4c0,0.2,0.1,4.8,0.1,7.3c-8.3-0.3-16.2-0.5-21.9-0.7c0-2.5,0-6.4,0.1-6.6c0-0.1,0.1-0.3,0.1-0.4 c-0.5-0.1-0.9-0.1-1.3-0.1l-0.9,0h-0.3c-0.5,0-1,0-1.5,0c-0.6,0-1.2,0-1.8,0c-0.5,0-0.9,0-1.4,0c-0.3,0-0.6,0-0.9,0h-0.2 c0,0,0,0,0,0c0,0.3-0.3,0.5-0.4,0.6c-0.1,0.1-0.1,0.2-0.2,0.3c0,0.1,0,1.3-0.1,2.5c0,1.2,0,2.5-0.1,3.6c0,0,0,0,0,0 c-0.5,0-1.1,0.1-1.9,0.1c0.2-1.8,0.3-4.2,0.5-5.7c0.1-0.7,0.1-1.2,0.1-1.3h-0.3l-0.9,0c-0.3,0-0.6,0-0.9,0 c-0.6,0.1-1.3,0.1-1.9,0.1c-0.7,0-1.3,0-2,0.1h-0.5h-0.3c-0.1,0-0.2,0-0.2,0.1c0,0.1-0.2,1.5-0.3,2.9c-0.1,1.4-0.3,2.9-0.4,4.2 c-0.8,0-1.6,0.1-2.4,0.1c0.1-1.5,0.3-3.5,0.4-4.9c0.2-1.9,0.2-1.9,0.2-1.9c0-0.1,0-0.1,0-0.1c0,0-0.1,0-0.1,0 c-0.3,0-0.6,0.1-0.9,0.1c-0.6,0.1-1.3,0.2-1.9,0.3c-0.2,0.1-0.5,0-0.6-0.2l-0.1,0.1c0,0.1-0.1,0.2-0.2,0.3c0,0.1,0,0.1-0.6,3.2 c-0.2,1.1-0.5,2.4-0.7,3.5c-7.2,0.4-14.6,0.8-17.5,1.4c-5.9,1.1-41.6,1.2-47.9,1.2c-6.3,0-50.3-1.5-55.1,0 c-4.8,1.5-30,0.2-38.5,0.5c-8.5,0.4-12.5,1.5-15.5,1.5c-0.4,0-0.7,0.4-0.9,1H3.8v30c3.5-0.1,4.9-0.1,6.4-0.1 c9.7-0.1,38.5,2.4,44.1,0.9c5.6-1.5,56,2,63.1,2.3c7.2,0.3,48.1,1.7,54.9,0.6c6.8-1.1,33.3-0.9,38.4-1.2c3.2-0.2,47.7,1,75.7,2.3 V58.2H280z M18.1,85.8c-4.2,0-7-2.2-7-6.5v-5.4c0-4.3,2.8-6.6,7-6.6c2.9,0,5.3,1.3,6.2,3.7l-0.1,0.2l-1.8,0.7l-0.2-0.1 c-0.7-1.5-2.3-2.4-4.2-2.4c-2.7,0-4.7,1.6-4.7,4.7v5c0,3.2,2,4.6,4.7,4.6c2.2,0,3.7-0.9,4.5-2.5l0.2-0.1l1.7,0.7l0.1,0.2 C23.7,84.5,21.4,85.8,18.1,85.8z M43.4,79.3c0,4.3-2.8,6.5-7,6.5c-4.2,0-7-2.2-7-6.5v-5.4c0-4.3,2.8-6.6,7-6.6c4.2,0,7,2.3,7,6.6 V79.3z M58.9,85.4l-0.2,0.1h-9.2l-0.1-0.1V67.8l0.1-0.2l2-0.3l0.1,0.1v15.9h7.7l0.1,0.1L58.9,85.4z M69.9,85.8c-4.2,0-7-2.2-7-6.5 v-5.4c0-4.3,2.8-6.6,7-6.6c2.9,0,5.3,1.3,6.2,3.7l-0.1,0.2l-1.8,0.7l-0.2-0.1c-0.7-1.5-2.3-2.4-4.2-2.4c-2.7,0-4.7,1.6-4.7,4.7v5 c0,3.2,2,4.6,4.7,4.6c2.2,0,3.7-0.9,4.5-2.5l0.2-0.1l1.7,0.7l0.1,0.2C75.5,84.5,73.2,85.8,69.9,85.8z M91.3,85.4l-0.1,0.1h-1.9 l-0.1-0.1v-8.3c0-2.3-1.3-3.1-2.9-3.1c-0.6,0-2.3,0.5-2.8,0.6v10.8l-0.1,0.1h-1.9l-0.1-0.1V66.6l0.1-0.2l1.9-0.3l0.1,0.1V73 l-0.1,1.2c0.2-0.5,1.1-2.1,3.8-2.1c2.3,0,4.1,1.6,4.1,4.6V85.4z M110.1,85.5h-2.1l-0.2-0.1l-1.5-4.3h-7.4l-1.4,4.3l-0.1,0.1h-2.2 l-0.1-0.1l6.2-17.5l0.2-0.1l2.2-0.3l0.2,0.1l6.3,17.9L110.1,85.5z M127.9,79.3c0,4.3-2.7,6.5-7,6.5c-4.2,0-7-2.2-7-6.5v-5.4 c0-4.3,2.8-6.6,7-6.6c2.9,0,5.3,1.3,6.2,3.7l-0.1,0.2l-1.8,0.7l-0.2-0.1c-0.7-1.5-2.3-2.4-4.2-2.4c-2.7,0-4.7,1.6-4.7,4.7v5 c0,3.2,2,4.6,4.7,4.6c2.8,0,4.7-1.5,4.7-4.6v-0.6h-3.1l-0.2-0.1l-0.3-1.9l0.1-0.1h5.5l0.1,0.1V79.3z M147.2,79.3 c0,4.3-2.6,6.5-6.9,6.5c-4.2,0-6.9-2.2-6.9-6.5V67.8l0.1-0.2l2-0.3l0.1,0.1v11.6c0,3.2,2,4.6,4.7,4.6c2.8,0,4.7-1.5,4.7-4.6V67.8 l0.1-0.2l2-0.3l0.1,0.1V79.3z M166.4,85.5h-2.1l-0.2-0.1l-1.5-4.3h-7.4l-1.4,4.3l-0.1,0.1h-2.2l-0.1-0.1l6.2-17.5l0.2-0.1l2.2-0.3 l0.2,0.1l6.3,17.9L166.4,85.5z M174.7,85.5h-0.8V67.4h0.8V85.5z M185.3,85.1h-2.1l-0.1-0.1v-7l0.1-0.1h1.9c1.2,0,2.3,0.3,2.3,1.8 c0,0.7-0.3,1.2-1,1.5c0.7,0.2,1.2,0.9,1.2,1.7C187.6,84.5,186.5,85.1,185.3,85.1z M188.7,74.1L188.7,74.1l-0.8,0.1l-0.1-0.1v-3.2 h-3.7v3.2l-0.1,0.1h-0.8l-0.1-0.1v-6.9l0.1-0.1L184,67l0.1,0v3h3.7v-2.8l0.1-0.1l0.8-0.1l0.1,0V74.1z M194.8,71.7v-2.1 c0-1.7,1.1-2.6,2.8-2.6c1.7,0,2.8,0.9,2.8,2.6v2.1c0,1.7-1.1,2.6-2.8,2.6C195.9,74.3,194.8,73.4,194.8,71.7z M201.2,82.7 c0,1.7-1.1,2.6-2.8,2.6c-1.6,0-2.8-0.9-2.8-2.6v-2.1c0-1.7,1.1-2.6,2.8-2.6c1.6,0,2.8,0.9,2.8,2.6V82.7z M207.9,67.9v-0.7l0.1-0.1 h4.9l0,0.1l-0.2,0.7l-0.1,0.1h-1.9v6.2l0,0.1h-0.8l-0.1-0.1V68L207.9,67.9L207.9,67.9z M215.1,82.7c0,1.7-1,2.6-2.7,2.6 c-1.7,0-2.7-0.9-2.7-2.6v-4.5l0.1-0.1l0.8-0.1l0.1,0v4.6c0,1.2,0.8,1.8,1.9,1.8c1.1,0,1.9-0.6,1.9-1.8v-4.4l0.1-0.1L215,78l0.1,0 V82.7z M220.6,74.1v-7l0.1-0.1h3.6l0.1,0.1v0.7l-0.1,0.1h-2.8v2.1h2.4l0,0.1l-0.2,0.7l-0.1,0.1h-2.2v2.5h2.8l0,0.1l-0.1,0.7 l-0.1,0.1L220.6,74.1L220.6,74.1z M227.6,78.8L227.6,78.8l-1.9,0.1v6.2l-0.1,0.1h-0.8l-0.1-0.1v-6.2h-2l-0.1-0.1v-0.7l0.1-0.1h4.9 l0,0.1L227.6,78.8z M236.4,85.1L236.4,85.1l-0.8,0.1l-0.1-0.1v-6.9l0.1-0.1l0.8-0.1l0.1,0V85.1z M236.4,74.1L236.4,74.1l-3.7,0.1 l-0.1-0.1v-6.9l0.1-0.1l0.8-0.1l0.1,0v6.3h3l0,0.1L236.4,74.1z M250.3,82.7c0,1.6-1.1,2.5-2.6,2.6c0,0-0.1,0.2-0.1,0.4 c0,0.4,0.2,0.7,0.6,0.7h0.8l0.1,0.1v0.8l-0.1,0.1h-0.8c-0.9,0-1.3-0.7-1.3-1.1c0-0.4,0.2-0.7,0.5-0.9c-1.6-0.1-2.6-0.9-2.6-2.6 v-2.1c0-1.7,1.1-2.6,2.8-2.6c1.6,0,2.8,0.9,2.8,2.6V82.7z M264.1,82.7c0,1.7-1,2.6-2.7,2.6c-1.7,0-2.7-0.9-2.7-2.6v-4.5l0.1-0.1 l0.8-0.1l0.1,0v4.6c0,1.2,0.8,1.8,1.9,1.8c1.1,0,1.9-0.6,1.9-1.8v-4.4l0.1-0.1l0.8-0.1l0.1,0V82.7z M276.4,78.8L276.4,78.8 l-2.9,0.1V81h2.4l0,0.1l-0.2,0.7l-0.1,0.1h-2.2v2.5h2.8l0,0.1l-0.1,0.7l-0.1,0.1h-3.5l-0.1-0.1v-7l0.1-0.1h3.6l0.1,0.1V78.8z"></path> <path class="st0" d="M96.7,10.7c0.4,0.2,0.6,0.5,0.3,0.8c-0.1,0.1-0.2,0.2-0.2,0.3c0.1,0.3,0.2,0.7,0.4,1c0.1,0.2,0.3,0.3,0.4,0.4 c0.2,0.4,0.4,0.8,0.6,1.2c0.4,0.8,0.9,1.7,1.3,2.5c0.2,0.5,0.4,1,0.6,1.5c0.2,0.3,0.3,0.7,0.5,1c0.1,0.3,0.1,0.5,0.2,0.8 c0.2,0.5,0.5,1.1,0.7,1.6c0.3,0.8,0.7,1.5,1,2.3c0.2,0.5,0.5,0.9,0.8,1.4c0.3,0.7,0.6,1.4,0.9,2.1c0.4,0.9,0.8,1.9,1.2,2.8 c0.3,0.7,0.6,1.3,0.9,2c0.2,0.4,0.4,0.7,0.5,1.1c0.1,0.2,0.1,0.5,0.2,0.8c0.2,0.5,0.4,0.9,0.7,1.4c0.2,0.3,0.5,0.7,0.7,1 c0,0-0.1,0-0.2,0c0.2,0.5,0.3,0.9,0.6,1.4c0.2,0.3,0.1,0.7,0.8,0.9c0.1,0,0.1,0.1,0.1,0.2c0,0.3,0,0.6,0,0.9c0,0.2,0.3,0.3,0.4,0.5 c0,0-0.2,0.1-0.2,0.1c0.1,0.1,0.1,0.3,0.3,0.3c0.5,0.1,0.3,0.2,0.3,0.4c-0.1,0.2,0,0.5,0,0.7c0.1,0.2,0.3,0.4,0.4,0.7 c0,0.5,0.6,0.9,0.4,1.4c0,0.1,0.1,0.1,0.1,0.2c0.2,0.3,0.4,0.7,0.5,1c0.4,0.9,0.8,1.9,1.1,2.8c0.1,0.3,0.3,0.7-0.1,1.1 c-0.1,0.1,0,0.2,0.1,0.3c0.1,0,0.1,0,0.2,0c0.1-0.1,0.1-0.2,0.3-0.3c0.1-0.1,0.3-0.2,0.3-0.2c0.5,0.1,0.5-0.1,0.6-0.2 c0.1-0.2,0.1-0.4,0.2-0.6c0.1-0.2,0.2-0.3,0.2-0.4c0.1,0,0.1,0,0.2,0c0.7,0.6,0.4,1.3,0.5,1.9c0.1,0.6-0.3,1.3-0.5,1.9 c0.8,0.2,1.4,0.2,1.8-0.3c0.2,0.2,0.2,0.4,0.3,0.5c0,0,0.1,0.1,0.1,0.1h1.7c0.4-0.5,0.7-1.1,1.1-1.6c0.4-0.7,0.8-1.4,1.2-2 c0.4-0.8,0.8-1.5,1.2-2.3c0.1-0.2,0.2-0.4,0.3-0.7c0.1-0.3,0.2-0.6,0.3-0.9c0.3-0.7,0.6-1.5,0.9-2.2c0.3-0.7,0.6-1.4,0.8-2.1 c0.1-0.3,0.2-0.7,0.3-1.1c0.1-0.3,0.1-0.7,0.2-1c0-0.2,0.2-0.4,0.2-0.5c-0.1-0.5,0.2-1,0.3-1.5c0.1-0.3,0.3-0.6,0.6-0.9 c0.3-0.3,0.4-0.7,0.5-1.1c0.1-0.3,0-0.5,0.1-0.8c0.1-0.3,0.2-0.6,0.4-0.9h-0.4c0.2-0.1,0.4-0.1,0.4-0.2c0.1-0.3,0.2-0.6,0.1-0.8 c-0.1-0.3-0.1-0.5,0.3-0.7c0,0,0.1-0.1,0.1-0.1c0.2-0.6,0.3-1.1,0.4-1.7c0.1-0.7,0.1-1.4,0.3-2c0.1-0.7,0.3-1.5,0.5-2.2 c0.2-0.8,0.4-1.5,0.6-2.3c0.3-1,0.6-2,0.9-3c0.3-1.1,0.5-2.3,0.8-3.4c0-0.2,0-0.4,0.1-0.5c0.2-0.5,0.4-1,0.6-1.6 c0.4-1.2,0.7-2.4,1.2-3.6c0.1-0.3,0.2-0.6,1-0.6c0.2,0,0.5-0.2,0.5-0.2c0-0.1-0.1-0.3-0.3-0.4c-0.1-0.1-0.3-0.1-0.6-0.2 c0.1-0.2,0.2-0.5,0.3-0.7h-1.8c0,0,0,0,0,0.1c0,0-0.2,0-0.4,0c-0.8,0-1.6,0-2.4,0.1c-0.3,0-0.5,0.3-0.7,0.4 c-0.1,0.1,0.1,0.3,0.2,0.3c0.5,0.1,0.5,0.3,0.5,0.5c0,0.1,0.1,0.2,0.2,0.3c0.1,0.2,0.3,0.3,0.4,0.5c0.1,0.2,0,0.4,0.1,0.6 c0.3,0.4,0.2,0.9,0,1.3c-0.4,1.2-0.8,2.3-1.1,3.5c-0.2,0.5-0.2,1.1-0.4,1.6c0,0.1-0.1,0.3-0.2,0.4c-0.3,0.4-0.7,0.7-1,1.1 c-0.1,0.1-0.1,0.3,0,0.3c0.5,0.2,0.2,0.3,0.1,0.5c-0.1,0.1-0.2,0.2-0.2,0.3c-0.2,0.7-0.3,1.4-0.5,2.1c-0.1,0.2,0.1,0.5-0.6,0.6 c0.5,0.4,0.4,0.6-0.4,0.9c0.1-0.5,0.1-1,0.2-1.5c0.1-0.4,0.2-0.8,0.3-1.2c0.2-0.8,0.3-1.5,0.5-2.3c0.1-0.4,0.2-0.7,0.3-1.1 c0.1-0.4,0.1-0.8,0.3-1.2c0.3-0.5,0.2-1,0.4-1.5c0.1-0.4,0.2-0.9,0.2-1.3c0-0.2,0-0.4,0.1-0.7c0.5-0.1,0.2-0.6,0.4-0.8 c-0.2-0.1-0.5-0.1-0.5-0.2c-0.2-0.3-0.4-0.6-0.1-1c0.2-0.2,0-0.4,0-0.7c-0.3,0.4-0.6,0.6-0.9,1c-0.2,0.4-0.7,0.7-0.1,1 c0,0.3,0,0.5-0.1,0.7c0,0.1,0,0.1,0,0.2c0,0.4-0.1,0.7-0.1,1.1c0,0.2-0.1,0.3-0.1,0.5c0,0.2-0.1,0.4-0.1,0.5c0,0.2-0.1,0.3-0.2,0.5 c-0.1,0.6-0.1,1.1-0.3,1.7c-0.1,0.6-0.3,1.2-0.5,1.7c-0.4,1.2-0.9,2.4-1.4,3.6c-0.3,0.9-0.7,1.8-1.1,2.7c-0.2,0.6-0.5,1.1-0.7,1.7 c-0.2,0.5-0.3,1-0.5,1.5c-0.2,0.6-0.5,1.1-0.7,1.7c-0.2,0.5-0.4,1.1-0.6,1.6c-0.1,0.3-0.2,0.5-0.3,0.8c-0.3,0.8-0.6,1.7-0.9,2.5 c-0.2,0.6-0.5,1.1-0.7,1.7c-0.2,0.5-0.3,1-0.5,1.5c-0.2,0.5-0.4,1.1-0.6,1.6c-0.2,0.4-0.3,0.8-0.5,1.2c-0.2,0.4-0.4,0.8-0.5,1.2 c-0.2,0.6-0.5,1.1-0.7,1.7c-0.1,0-0.1,0-0.2,0c-0.1-0.1-0.2-0.2-0.2-0.4c-0.5-1.3-0.9-2.6-1.4-3.9c-0.2-0.6-0.3-1.2-0.6-1.7 c-0.4-1.1-0.9-2.2-1.4-3.2c-0.5-1.2-0.9-2.3-1.4-3.5c-0.5-1.2-1-2.3-1.6-3.4c-0.3-0.7-0.6-1.4-0.9-2c-0.2-0.5-0.6-0.9-0.8-1.4 c-0.4-0.8-0.6-1.6-1-2.3c-0.3-0.7-0.8-1.4-1.1-2.1c-0.4-0.9-0.8-1.9-1.3-2.8c-0.3-0.7-0.7-1.3-1-1.9c-0.2-0.4-0.4-0.8-0.6-1.3 c-0.3-0.5-0.7-1-1.1-1.6c-0.3-0.5-0.3-0.5-1.3-0.6c-0.2,0.2-0.5,0.4-0.8,0.7c-0.2-0.2-0.4-0.3-0.5-0.4c-0.4-0.6-0.7-1.2-1.1-1.8 c-0.1-0.1-0.5-0.2-0.6-0.2c-0.3,0.1-0.5,0.2-0.2,0.4C96.8,10.4,96.7,10.5,96.7,10.7z M131,9.4c0-0.2,0.1-0.4,0.5-0.3 c0.3,0.1,0.6,0.3,0.6,0.4c0,0.3-0.1,0.6-0.2,0.9c-0.1,0.2-0.2,0.3-0.5,0.2c-0.2,0-0.3-0.2-0.4-0.2C131,10,130.9,9.7,131,9.4z M119.3,49.3c0-0.1-0.1-0.2-0.1-0.2c0.2-0.8,0.4-1.5,0.5-2.3c0-0.7,0.7-1.3,0.8-2c0.2-0.7,0.7-1.4,1.1-2.1 C121.8,42.9,119.7,48.9,119.3,49.3z M118.8,41.4c0.2-0.3,0.3-0.5,0.7-0.7C119.5,41.1,119.4,41.3,118.8,41.4z M121.7,38.5 c0.7-3.1,1.9-6.1,3.7-9C125.5,30.3,123.2,36.8,121.7,38.5z M118.8,38.9c0-0.1,0-0.3,0-0.4c0-0.1,0-0.2,0-0.3 c0.2-0.4,0.4-0.8,0.6-1.3c0.1-0.2,0.2-0.4,0.3-0.7c0.3-0.7,0.5-1.5,0.8-2.2c0.3-0.8,0.6-1.7,0.9-2.5c0.3-0.8,0.5-1.6,0.9-2.4 c0.2-0.4,0.4-0.8,0.6-1.3c0.1-0.4,0.2-0.7,0.4-1.1c0.3-0.6,0.6-1.2,1-1.7c0,0.1,0,0.1,0,0.2c-0.2,1-0.5,2-0.7,3 c-0.1,0.4-0.3,0.8-0.4,1.3c-0.2,0.7-0.3,1.3-0.5,2c-0.2,0.7-0.5,1.5-0.7,2.2c-0.3,0.8-0.5,1.6-0.9,2.3c-0.2,0.5-0.6,1.1-1,1.6 c-0.3,0.5-0.6,0.9-0.9,1.4c-0.2,0.3-0.3,0.7-0.5,1c0,0.1-0.1,0.1-0.2,0.2c-0.1-0.1-0.1-0.2-0.1-0.2 C118.5,39.7,118.7,39.3,118.8,38.9z M118.9,42.3c-0.4,1-0.8,2-1.2,3C117.1,44.8,118.1,42.4,118.9,42.3z M101.4,15.8 c0.3,0.5,0.6,1,0.9,1.5c0.1,0.2,0.2,0.5,0.3,0.7c0.2,0.4,0.5,0.8,0.8,1.2c-0.1,0-0.2,0.1-0.2,0.1c0.1,0.3,0.2,0.7,0.4,1 c0,0,0.3,0.1,0.5,0.1c0,0.1-0.4,0.3-0.1,0.5c0.4,0.2,0.1,0.5,0.2,0.7c0,0.1,0,0.1,0,0.2c0.4,0.7,0.8,1.4,1.2,2.1 c0.5,0.9,0.9,1.8,1.3,2.6c0.5,1.1,0.9,2.1,1.4,3.2c0.3,0.7,0.7,1.5,1,2.2c0.3,0.7,0.5,1.5,0.8,2.2c0.1,0.4,0.3,0.8,0.5,1.2 c0.1,0.2,0,0.4,0,0.6c-0.2-0.1-0.2-0.1-0.2-0.1c-0.3-0.8-0.6-1.6-1-2.4c-0.2-0.4-0.5-0.9-0.6-1.3c-0.3-0.7-0.5-1.4-0.7-2.1 c-0.2-0.5-0.5-0.9-0.7-1.4c-0.2-0.5-0.3-0.9-0.5-1.4c-0.3-0.7-0.6-1.3-0.9-2c-0.2-0.4-0.2-0.7-0.4-1.1c-0.2-0.4-0.5-0.9-0.8-1.3 c0,0,0-0.1,0-0.1c-0.2-0.4-0.4-0.9-0.6-1.3c-0.3-0.6-0.7-1.2-1-1.9c-0.4-0.7-0.9-1.4-1.3-2.1c-0.5-0.8-1-1.6-1.4-2.5 c-0.1-0.1,0-0.2,0-0.3C100.9,14.8,101.1,15.4,101.4,15.8z M99.7,13.8c0.1,0.2,0.2,0.4,0.3,0.6c-0.1,0-0.1,0-0.2,0 C99.5,14.3,99.4,14.1,99.7,13.8z"></path> <path class="st0" d="M11.8,32.2c0.1,0.5,0.2,0.9,0.4,1.4c0.3,0.7,0.5,1.5,0.9,2.2c0.3,0.7,0.7,1.4,1.2,2.1c0.4,0.7,0.9,1.4,1.4,2 c0.5,0.7,1,1.3,1.4,2c0.2,0.2,0.3,0.4,0.4,0.6c0.5,0.6,1.1,1.1,1.6,1.7c0.4,0.5,0.8,0.9,1.3,1.4c0.8,0.7,1.7,1.3,2.6,1.9 c1.1,0.8,2.3,1.4,3.6,2c0.8,0.4,1.7,0.7,2.6,1.1c0.4,0.1,0.7,0.3,1.1,0.4c0.6,0.2,1.3,0.3,1.9,0.7c0.3,0.2,0.7,0.3,1,0.4 c0.4,0.1,0.9,0.3,1.4,0.3c0.6,0.1,1.3,0.3,2,0.1c0-0.3,0-0.5-0.1-0.8c-0.2-0.1-0.5-0.2-0.8-0.4c0,0,0-0.1,0-0.2 c0.3-0.1,0.5-0.2,0.8-0.2c0.5-0.1,0.8-0.4,0.6-0.6c-0.2-0.2-0.4-0.3-0.6-0.4c-0.3-0.1-0.6-0.2-0.9-0.3c-0.3-0.1-0.6-0.2-0.8-0.4 c-0.4-0.2-1-0.1-1.2-0.5c0,0-0.1-0.1-0.2-0.1c-0.5-0.1-0.9-0.3-1.3-0.6c-0.8-0.5-1.6-0.9-2.5-1.4c-0.6-0.3-1.1-0.7-1.7-1 c-0.3-0.2-0.6-0.4-0.7-0.6c-0.1-0.3-0.2-0.5-0.6-0.5c-0.1,0-0.1-0.1-0.2-0.1c-0.6-0.7-1.2-1.3-1.7-2c-0.5-0.7-0.9-1.3-1.4-2 c-0.5-0.7-1-1.3-1.5-2c-0.3-0.4-0.5-0.8-0.7-1.3c-0.3-0.6-0.7-1.1-1-1.7c-0.2-0.4-0.4-0.9-0.5-1.4c-0.1-0.2-0.2-0.3-0.3-0.5 c-0.2-0.9-0.7-1.8-0.7-2.8c0-0.5-0.1-1-0.2-1.6c0-0.5,0-1.1,0-1.6c0-0.6,0.1-1.1,0.2-1.7c0.1-0.7,0.3-1.3,0.5-2 c0.1-0.4,0.2-0.7,0.4-1.1c0.3-0.6,0.7-1.3,1.1-1.9c0.1-0.3,0.3-0.5,0.5-0.7c0.4-0.6,0.8-1.2,1.2-1.8c0.4-0.6,0.8-1.2,1.2-1.7 c0.4-0.5,0.7-1,1.4-1.3c0.5-0.3,1-0.6,1.5-0.9c0.2-0.2,0.3-0.3,0.2-0.6c-0.1-0.1-0.1-0.3,0-0.4c0.2-0.2,0.4-0.3,0.7-0.4 c0.9-0.4,1.8-0.7,2.7-1.1c1.2-0.5,2.4-1.1,3.6-1.6c0.5-0.2,1-0.7,1.7-0.3c0.1,0,0.2,0,0.3,0c0.7-0.1,1.5-0.3,2.2-0.5 c0.2,0,0.3-0.2,0.5-0.3C38.8,9.2,39.4,9.1,40,9c0.3-0.1,0.7-0.2,0.7-0.4c0-0.6,0.6-0.6,1-0.7c0.1,0,0.3,0,0.3-0.1 c0.1-0.1,0.2-0.2,0.2-0.3c0-0.1-0.2-0.2-0.3-0.2c-0.2,0-0.5,0-0.7,0c-0.4,0-0.9,0.3-1.3,0c0,0-0.1,0-0.1,0 c-0.5,0.1-0.9,0.1-1.4,0.2c-0.7,0.1-1.3,0.1-2,0.1c-0.5,0-1-0.1-1.5-0.2c-1.1,0-2.1,0.1-3.1,0.3c-0.3,0.1-0.6,0-0.9,0.2 c-1.1,0.4-2.2,0.8-3.2,1.3c-0.6,0.3-1,0.6-1.5,1c-0.7,0.6-1.3,1.2-2,1.8c-0.4,0.4-0.9,0.7-1.3,1.1c-0.5,0.5-1,1-1.5,1.5 c-0.7,0.6-1.4,1.2-2.1,1.8c-0.8,0.7-1.5,1.5-2.2,2.3c-0.5,0.5-1,1.1-1.4,1.6c-0.4,0.5-0.7,0.9-1.1,1.4c-0.6,0.8-1.2,1.6-1.6,2.6 c-0.2,0.6-0.5,1.1-0.7,1.7c-0.1,0.4-0.1,0.8-0.3,1.2c-0.4,0.7-0.3,1.5-0.4,2.2c0,0.4,0,0.9,0.1,1.3C11.7,31.3,11.7,31.7,11.8,32.2z M33.4,49.9c0.5,0.2,1.1,0.4,1.6,0.6c0.1,0,0.1,0.1,0.2,0.1c-0.2,0.1-0.2,0.3-0.4,0.3c-0.3,0-0.6,0-0.8-0.1 c-0.2-0.1-0.4-0.3-0.6-0.5c-0.1-0.1-0.2-0.1-0.3-0.2c-0.1-0.1-0.1-0.2-0.2-0.2C33.2,49.9,33.3,49.9,33.4,49.9z M29.2,49.1 c0.3,0.1,0.7,0.1,1,0.3c0.4,0.2,0.7,0.4,1.1,0.7c-0.2,0-0.2,0-0.3,0c-0.5-0.2-1-0.3-1.5-0.5c-0.1-0.1-0.3-0.1-0.4-0.2 c-0.1-0.1-0.2-0.2-0.2-0.2C28.9,49.2,29.1,49.1,29.2,49.1z M29.4,9.2c-0.2,0.4-0.7,0.6-1.2,0.6C28.2,9.5,28.8,9.2,29.4,9.2z M19.8,20.4c0.1-0.3,0.3-0.5,0.4-0.8c0.1-0.4,0.6-0.6,0.8-0.9c0-0.1,0.1-0.1,0.1-0.1c-0.1-0.4,0.3-0.6,0.5-0.8 c0.3-0.3,0.5-0.6,0.8-0.9c0.1-0.1,0.2-0.1,0.3-0.2c0,0.1,0.1,0.2,0.1,0.3c-0.3,0.5-0.6,0.9-1,1.3c-0.2,0.2-0.4,0.4-0.6,0.7 c-0.2,0.3-0.3,0.6-0.4,0.9c-0.2,0.3-0.4,0.6-0.7,1c-0.1,0-0.1,0-0.2,0C19.9,20.7,19.8,20.5,19.8,20.4z M22.5,40.6 c0.1,0.1,0.2,0.1,0.3,0.2c0.4,0.6,0.7,1.1,1.1,1.7c0.1,0.1,0.2,0.1,0.3,0.2c0.1,0.1,0.2,0.2,0.3,0.4c-0.1,0-0.1,0.1-0.2,0.1 c-0.2-0.1-0.4-0.2-0.5-0.3c-0.3-0.4-0.6-0.9-0.9-1.3c-0.1-0.2-0.3-0.4-0.4-0.6C22.4,40.8,22.5,40.7,22.5,40.6z M18.3,34 c0.9,1.9,1.7,3.8,2.5,5.7c0,0-0.1,0.1-0.1,0.1C19,38.5,17.5,34.9,18.3,34z M19.1,40.7c0.6,0.8,1.3,1.6,1.9,2.3 c0.6,0.6,1.2,1.2,1.8,1.7c0.2,0.2,0.4,0.4,0.5,0.6c0.6,0.6,1.1,1.2,1.7,1.8c0.1,0.1,0.2,0.3,0.3,0.4c-0.2-0.1-0.4-0.1-0.5-0.1 c-0.6-0.4-1.4-0.7-1.7-1.4c0-0.1-0.1-0.2-0.2-0.2c-0.5,0-0.7-0.3-1-0.5c-0.7-0.6-1.4-1.3-2-1.9c-0.3-0.3-0.5-0.5-0.7-0.8 c-0.5-0.6-1-1.2-1.4-1.9c-0.2-0.5-0.6-0.9-0.6-1.4c0-0.4-0.3-0.8-0.5-1.2c-0.1-0.1,0-0.2-0.1-0.4c0.1,0,0.1,0,0.2,0 c0.3,0.3,0.5,0.7,0.8,1C18.1,39.4,18.6,40,19.1,40.7z M16.2,23.1c0.3-0.7,0.6-1.4,0.9-2c0-0.1,0.2-0.1,0.3-0.2c0,0.1,0.1,0.2,0,0.3 c-0.3,0.5-0.7,1-0.8,1.5c-0.1,0.4-0.3,0.8-0.5,1.2c0,0,0,0,0,0.1c0,0-0.1,0-0.1,0C16.1,23.6,16.1,23.3,16.2,23.1z M16,29.5 c0-0.3,0.1-0.5,0.1-0.8c0-0.1,0.1-0.1,0.2-0.2c0.1,0.2,0.2,0.4,0.2,0.5c0.3,0.7,0.6,1.5,0.6,2.2c0,1,0.1,2,0.1,3c0,0.1,0,0.2,0,0.3 c-0.1,0-0.1,0-0.1,0c-0.4-0.4-0.7-0.9-0.8-1.5c0-0.1-0.1-0.2-0.1-0.3c-0.1-0.4-0.2-0.8-0.2-1.2c-0.1-0.3-0.2-0.7-0.2-1 C15.9,30.2,16,29.8,16,29.5z M14.8,32.3c0,0.2,0,0.3,0,0.5c0,0.1,0,0.3,0,0.5c-0.5-0.4-1-1.3-0.9-1.7c0,0,0,0,0,0 C14.9,31.6,14.9,31.6,14.8,32.3z M14.1,26.7c0,0.3,0.1,0.5,0.1,0.7c0.1,0.7,0.3,1.4,0.4,2.1c0.1,0.5,0,0.8-0.3,1.2 C13.3,30.3,13.4,27.5,14.1,26.7z M12.5,29.6c-0.1,0.7,0.3,1.4,0.5,2.1c0.1,0.6,0.2,1.2,0.4,1.8c0.1,0.5,0.4,1,0.5,1.5 c0.1,0.2,0,0.3-0.1,0.5c-1.3-1.9-1.5-4-1.5-6.2C12.4,29.5,12.5,29.6,12.5,29.6z"></path> <path class="st0" d="M51.8,51.5c0.6,0.2,0.4,0.4,0.3,0.7c0,0.1-0.2,0.2-0.2,0.4h1.7c0.1,0,0.1-0.1,0.2-0.2c0,0,0.2,0,0.4,0 c0.8,0,1.6,0,2.4-0.1c0.3,0,0.6-0.3,0.7-0.4c0.1-0.1-0.1-0.3-0.2-0.3c-0.5-0.1-0.4-0.3-0.5-0.5c-0.1-0.1-0.1-0.3-0.2-0.4 c0-0.1-0.2-0.1-0.2-0.2c-0.1-0.4-0.2-0.8-0.2-1.2c0-0.4,0.1-0.7,0.3-1.1c0.3-0.7,0.6-1.3,0.8-2c0.2-0.4,0.3-0.7,0.4-1.1 c0.2-0.6,0.4-1.3,0.7-1.9c0-0.1,0.1-0.2,0.2-0.3c0.4-0.4,0.7-0.7,1.1-1.1c0.1-0.1,0-0.3,0-0.3c-0.4-0.1-0.2-0.2-0.1-0.3 c0.4-0.4,0.4-0.8,0.5-1.1c0.2-0.5,0.4-1.1,0.6-1.6c0.1-0.3,0.4-0.3,0.8-0.4c-0.1,0.3-0.1,0.5-0.2,0.8c-0.2,0.6-0.3,1.1-0.5,1.7 c-0.1,0.3-0.3,0.6-0.4,0.8c-0.3,1-0.6,2.1-1,3.1c-0.3,0.5-0.4,1.1-0.5,1.6c-0.1,0.4-0.1,0.8-0.3,1.2c-0.1,0.3-0.3,0.5,0,0.7 c-0.7,0.2-0.4,0.6-0.7,0.9c0.2,0,0.4,0.1,0.5,0.1c0.2,0.4,0.3,0.7,0,1.1c-0.1,0.2-0.1,0.4-0.1,0.6c0.3-0.4,0.7-0.7,0.9-1 c0.3-0.4,0.8-0.7,0.3-1c0-0.3,0.1-0.5,0.1-0.7c0-0.1,0-0.1,0-0.2c0.1-0.4,0.1-0.7,0.2-1.1c0-0.2,0.1-0.3,0.2-0.5 c0-0.2,0.1-0.4,0.2-0.5c0.1-0.2,0.2-0.3,0.2-0.5c0.1-0.6,0.2-1.1,0.4-1.7c0.2-0.6,0.5-1.1,0.7-1.7c0.5-1.4,1.2-2.8,2-4.2 c0-0.1,0.1-0.1,0.2-0.2c0.4-0.1,0.9-0.3,1.3-0.4c1.7-0.5,3.5-1,5.2-1.6c1.1-0.3,2.1-0.7,3.2-1c1-0.3,2-0.5,3.1-0.8 c0.8-0.2,1.7-0.5,2.6-0.7c0.2,0.6,0.3,1.2,0.5,1.8c0.2,0.5,0.5,1,0.7,1.5c0.3,0.8,0.5,1.6,0.8,2.3c0.3,0.7,0.7,1.4,0.9,2.1 c0.4,0.9,0.6,1.9,1,2.8c0.3,0.7,0.6,1.3,0.8,2c0.2,0.4,0.3,0.8,0.5,1.2c0.1,0.1,0.1,0.2,0.2,0.3c0,0,0,0,0,0c0.1,0.2,1,2.2,1.3,2.8 c0.2,0.6,0.2,0.8-0.2,1.3c-0.4,0.5-1.4-0.5-1.4,0c0,0.5-0.1,1.3-0.1,1.3l3.7,0.2c0,0-1-2.3-1-3.8c0.2-0.2,0.4-0.3,0.6-0.5 c0.4,0,0.6,0.1,0.6,0.4c0.3,0.6,0.6,1.2,0.9,1.8c0.1,0.1,0.4,0.1,0.6,0.2l0.1,1.7h1.5c0,0-0.9-1.3-1.4-2.3c0-0.1-0.1-0.2-0.1-0.3 c0,0,0,0-0.1-0.1c-0.1-0.3-0.2-0.5-0.1-0.7c0.1-0.1,0.3-0.2,0.3-0.3c-0.1-0.3-0.2-0.7-0.3-1c-0.1-0.1-0.3-0.3-0.3-0.4 c-0.2-0.4-0.3-0.8-0.4-1.2c-0.3-0.8-0.7-1.7-1-2.5c-0.2-0.5-0.3-0.9-0.5-1.4c-0.2-0.6-0.3-1.1-0.5-1.7c-0.2-0.5-0.3-1-0.5-1.5 c-0.2-0.6-0.5-1.3-0.7-1.9c-0.1-0.4-0.2-0.7-0.3-1.1c-0.3-0.8-0.7-1.6-1-2.4c-0.2-0.7-0.5-1.4-0.7-2.2c-0.1-0.8-0.2-1.6-0.8-2.3 c-0.3-0.4-0.4-0.8-0.5-1.3c-0.3-1-0.7-2-0.9-3c-0.1-0.4-0.4-0.7-0.8-1h0.4c-0.1-0.3-0.1-0.6-0.2-0.9c-0.3-0.5-0.1-1-0.9-1.4 c-0.1,0-0.1-0.2-0.1-0.2c0-0.3,0.1-0.6,0-0.9c0-0.1-0.2-0.3-0.3-0.4c0,0,0.2-0.1,0.2-0.1c-0.1-0.1-0.1-0.3-0.3-0.3 c-0.4-0.1-0.3-0.2-0.2-0.4c0.1-0.2,0.1-0.4,0-0.7c-0.1-0.2-0.3-0.4-0.3-0.7c0-0.5-0.5-0.9-0.3-1.4c0-0.1,0-0.1-0.1-0.2 c-0.1-0.3-0.3-0.7-0.4-1c-0.3-0.9-0.6-1.9-0.8-2.8c-0.1-0.3-0.2-0.7,0.2-1.1c0.1-0.1,0-0.2,0-0.3c-0.1,0-0.1,0-0.2,0 c-0.1,0.1-0.2,0.2-0.3,0.3c-0.1,0.1-0.2,0.3-0.6,0.2c-0.1,0-0.3,0.1-0.3,0.1c-0.1,0.2-0.2,0.4-0.3,0.6c-0.1,0.2-0.2,0.3-0.3,0.5 c-0.1,0-0.1,0-0.2,0c-0.1-0.1-0.2-0.2-0.2-0.3c-0.2-0.8-0.3-1.6,0.1-2.4C74.9,9.8,75,9.4,75.1,9c-0.7-0.1-1.3-0.2-1.8,0.3 C73.1,9.1,73.1,9,73,8.8c-0.1-0.2-0.2-0.3-0.3-0.5c-0.1-0.1-0.2-0.3-0.2-0.4c0-0.2,0.2-0.3,0.3-0.5c0,0,0-0.1,0.1-0.1h-0.6 c-0.3,0.3-0.5,0.5-0.7,0.8c-0.6,0.7-1.1,1.4-1.6,2.2c-0.5,0.7-0.9,1.4-1.4,2c-0.5,0.8-0.9,1.5-1.4,2.3c-0.1,0.2-0.2,0.4-0.3,0.6 c-0.2,0.3-0.3,0.7-0.5,1c-0.3,0.7-0.7,1.4-1,2.1c-0.3,0.7-0.7,1.4-1,2.1c-0.2,0.4-0.3,0.7-0.4,1.1c-0.1,0.3-0.2,0.7-0.3,1 c-0.1,0.2-0.2,0.3-0.3,0.5c-0.1,0.4-0.1,0.8-0.3,1.2c-0.2,0.4-0.4,0.9-0.9,1.3c-0.4,0.3-0.4,0.7-0.6,1.1c-0.1,0.3-0.1,0.6-0.2,0.8 c-0.1,0.3-0.3,0.5-0.4,0.8c0,0,0.1,0,0.1,0.1c-0.1,0.3-0.3,0.5-0.3,0.7c0,0.2,0.2,0.5,0,0.7c-0.3,0.3-0.5,0.5-0.5,0.8 c-0.1,0.4-0.3,0.8-0.5,1.3c-0.2,0.5-0.3,0.9-0.4,1.4c0,0.1-0.1,0.2-0.1,0.4c0,0.2,0,0.5,0,0.7c-0.2,0.6-0.4,1.2-0.6,1.8 c-0.3,0.8-0.5,1.5-0.8,2.3c-0.4,1-0.8,1.9-1.1,2.9c-0.4,1.1-0.8,2.3-1.1,3.4c-0.1,0.2-0.1,0.4-0.2,0.6c-0.2,0.5-0.5,1-0.7,1.6 c-0.5,1.2-0.9,2.4-1.5,3.5c-0.1,0.2-0.2,0.6-1,0.6c-0.2,0-0.5,0.2-0.6,0.3C51.5,51.2,51.6,51.5,51.8,51.5z M81,32.3 c0.2,0.7,0.4,1.3,0.6,1.8c0.2,0.6,0.4,1.2,0.7,1.8c0.2,0.5,0.4,1,0.6,1.5c0.3,0.6,0.6,1.2,0.8,1.8c0.3,0.6,0.5,1.2,0.7,1.7 c0.3,0.7,0.7,1.4,1.1,2.1c0.4,0.8,0.8,1.7,1.2,2.5c0,0.1,0,0.2,0,0.3c-1-0.3-1.1-0.8-1.4-1.3c-0.3-0.5-0.5-1-0.8-1.5 c-0.1-0.3-0.2-0.5-0.3-0.8c-0.2-0.4-0.4-0.8-0.7-1.2c0.1,0,0.2-0.1,0.2-0.1c0-0.3,0-0.5,0-0.7c0-0.3-0.2-0.4-0.7-0.4 c0.1-0.1,0.2-0.2,0.3-0.3c-0.1-0.2-0.3-0.4-0.3-0.7c0-0.3-0.3-0.6-0.4-0.9c-0.3-0.6-0.5-1.2-0.7-1.8c-0.3-0.7-0.5-1.3-0.8-2 c-0.2-0.5-0.4-1-0.5-1.6C80.6,32.6,80.9,32.4,81,32.3z M79.8,28.6c0.1,0,0.1,0.2,0.2,0.3c0,0.1,0,0.3,0,0.5c-0.8,0-0.3-0.5-0.8-0.7 C79.5,28.6,79.7,28.6,79.8,28.6z M79.2,27.4c0.2,0.2,0.3,0.3,0.5,0.5c-0.7,0-0.8-0.1-0.7-0.3C79,27.5,79.2,27.5,79.2,27.4z M78.5,24.5c0.2,0.4,0.3,0.9,0.5,1.3c-0.1,0-0.1,0-0.2,0.1c-0.1,0-0.3-0.1-0.3-0.1c-0.1-0.4-0.1-0.8-0.2-1.3 C78.4,24.5,78.5,24.5,78.5,24.5z M77.7,29.9c0,0.2,0.4,0.4-0.2,0.6c-1.2,0.3-2.4,0.6-3.5,1c-1.5,0.4-3,0.9-4.5,1.3 c-0.9,0.3-1.9,0.5-2.8,0.8c-0.4,0.1-0.8,0.3-1.2,0.5c-0.1,0.1-0.3,0.1-0.4,0.1c0.7-1.5,1.5-3.1,2.2-4.6c0.5,0,1,0.1,1.5,0.1 c1.2,0,2.3,0,3.5,0c1.2,0,2.3,0.1,3.5,0.1c0.5,0,1,0,1.4,0C77.4,29.7,77.7,29.8,77.7,29.9z M66.1,29c-0.2,0-0.4,0-0.6,0 c0,0,0-0.1,0-0.1c0.4-0.1,0.8-0.1,1.3-0.2C66.7,29,66.5,29.1,66.1,29z M77.5,29.1c-0.2,0-0.3,0.1-0.5,0.1c-1.6,0-3.3-0.1-4.9-0.1 c-1.1,0-2.3,0-3.4,0c-0.4,0-0.8,0-1.2-0.1c0.1-0.1,0.1-0.2,0.2-0.3c1.2,0,2.5-0.1,3.7-0.1c1.3,0,2.6,0,3.9,0c0.6,0,1.2,0,1.8,0.1 C77.3,28.7,77.4,29,77.5,29.1z M77,27.8c-1.5-0.1-3-0.2-4.5-0.3c0,0,0-0.1,0-0.1c0.3,0,0.7-0.1,1.1-0.1c0.9,0,1.8,0.1,2.8,0.1 C76.9,27.4,76.9,27.4,77,27.8z M76.2,19.3c0.1,0.1,0.3,0.2,0.3,0.3c0.1,0.4,0.1,0.8,0.1,1.1c0,0-0.1,0-0.1,0 c-0.1-0.3-0.3-0.6-0.4-0.8c0-0.1-0.1-0.2-0.1-0.3C76.1,19.5,76.1,19.4,76.2,19.3z M72.5,18.5c0.1-0.3,0.3-0.6,0.4-0.8 c0.2-0.3,0.4-0.7,0.7-1c0.1,0,0.1,0,0.2,0c0.1,0.4,0.3,0.9,0.4,1.3c0.2,0.8,0.4,1.6,0.6,2.4c0.2,0.7,0.3,1.4,0.6,2.1 c0.3,0.8,0.6,1.6,0.9,2.5c0.1,0.3,0.2,0.6,0.2,0.8c0,0-0.3,0.1-0.4,0.2c-0.1,0-0.2,0-0.2,0c-0.5,0-0.9,0-1.3,0 c-0.6,0-1.1,0.2-1.7,0c-0.5-0.1-1.2,0-1.8,0c-0.7,0-1.3,0-2.1,0.1c0.2-0.4,0.4-0.8,0.6-1.2c0.2-0.6,0.4-1.1,0.7-1.7 c0.2-0.5,0.5-0.9,0.8-1.4c0.2-0.3,0.3-0.7,0.5-1C71.7,20.1,72.1,19.3,72.5,18.5z M71.9,15.1c0.4,0.3,0,1.5-0.5,2.1 c-0.7,0.9-0.7,0.9-1.1,0.9C70.8,17.1,71.3,16.1,71.9,15.1z M70.6,11.1c0,0.1,0.1,0.2,0.1,0.2c-0.2,0.8-0.6,1.5-0.7,2.3 c-0.1,0.7-0.8,1.3-1,2c-0.3,0.7-0.8,1.4-1.3,2.1C67.5,17.5,70.1,11.5,70.6,11.1z M68.4,23.1c0.8-1,1.4-2,2.1-3c0.1,0,0.1,0,0.2,0 c-0.2,0.4-0.3,0.8-0.5,1.2c-0.1,0.2-0.1,0.3-0.1,0.5c0,0.1,0,0.1-0.1,0.2c-0.3,0.4-0.5,0.9-0.8,1.3c0,0,0,0,0,0.1 c-0.3,0.7-0.8,1.4-1,2.2c-0.1,0.5-0.5,0.6-1.2,0.5c-0.1,0-0.2,0-0.4,0C67.1,25.2,67.6,24.1,68.4,23.1z M66.9,21.9 c0.1,0,0.1,0,0.1,0c0,0.3,0,0.5-0.1,0.8c-0.2,0.5-0.5,1-0.7,1.4c-0.3,0.6-0.5,1.2-0.8,1.8c-0.2,0.4-0.2,0.4-1.1,0.4 C65.2,24.8,66.1,23.3,66.9,21.9z M64,32.9c0.2-0.5,0.4-1.1,0.6-1.6c0.2-0.6,0.4-1.1,0.5-1.7c0.1-0.2,0.3-0.3,0.7-0.2 c0.2,0,0.4,0.1,0.6,0.1c-0.2,0.4-0.4,0.7-0.6,1.1c-0.1,0.3-0.1,0.5-0.3,0.8c-0.3,0.6-0.7,1.2-1,1.8c-0.2,0.4-0.4,0.8-0.6,1.2 c-0.1,0-0.2,0-0.4,0C63.7,34,63.8,33.5,64,32.9z M62.7,30c0-0.1,0-0.2,0-0.3c0-0.2,0.2-0.3,0.7-0.3c-0.3,0.5-0.6,0.9-0.9,1.4 c0,0-0.1,0-0.1,0C62.6,30.6,62.7,30.3,62.7,30z M54.3,50c0.1-0.1,0.3-0.2,0.5-0.2c0.1,0,0.2,0.1,0.3,0.2c0,0.4,0,0.7-0.1,1 c0,0.2-0.1,0.4-0.6,0.3C54.3,51.3,54,51,54,50.9C54,50.6,54.2,50.3,54.3,50z"></path> <path class="st0" d="M140.5,51.5c0.6,0.2,0.4,0.4,0.3,0.7c0,0.1-0.2,0.2-0.2,0.4h1.7c0.1,0,0.1-0.1,0.2-0.2c0,0,0.3,0,0.4,0 c0.8,0,1.6,0,2.4-0.1c0.3,0,0.6-0.3,0.7-0.4c0.1-0.1-0.1-0.3-0.2-0.3c-0.5-0.1-0.4-0.3-0.5-0.5c-0.1-0.1-0.1-0.3-0.2-0.4 c0-0.1-0.2-0.1-0.2-0.2c-0.1-0.4-0.2-0.8-0.2-1.2c0-0.4,0.1-0.7,0.3-1.1c0.3-0.7,0.6-1.3,0.9-2c0.2-0.4,0.3-0.7,0.4-1.1 c0.2-0.6,0.4-1.3,0.7-1.9c0-0.1,0.1-0.2,0.2-0.3c0.4-0.4,0.7-0.7,1.1-1.1c0.1-0.1,0-0.3,0-0.3c-0.4-0.1-0.2-0.2-0.1-0.3 c0.4-0.4,0.4-0.8,0.5-1.1c0.2-0.5,0.4-1.1,0.6-1.6c0.1-0.3,0.4-0.3,0.8-0.4c-0.1,0.3-0.1,0.5-0.2,0.8c-0.2,0.6-0.3,1.1-0.5,1.7 c-0.1,0.3-0.3,0.6-0.4,0.8c-0.3,1-0.6,2.1-1,3.1c-0.3,0.5-0.4,1.1-0.5,1.6c-0.1,0.4-0.1,0.8-0.3,1.2c-0.1,0.3-0.3,0.5,0,0.7 c-0.7,0.2-0.4,0.6-0.7,0.9c0.2,0,0.4,0.1,0.5,0.1c0.2,0.4,0.3,0.7,0,1.1c-0.1,0.2-0.1,0.4-0.1,0.6c0.4-0.4,0.7-0.7,0.9-1 c0.3-0.4,0.8-0.7,0.3-1c0-0.3,0.1-0.5,0.1-0.7c0-0.1,0-0.1,0-0.2c0.1-0.4,0.1-0.7,0.2-1.1c0-0.2,0.1-0.3,0.2-0.5 c0-0.2,0.1-0.4,0.1-0.5c0.1-0.2,0.2-0.3,0.2-0.5c0.1-0.6,0.2-1.1,0.4-1.7c0.2-0.6,0.5-1.1,0.7-1.7c0.5-1.4,1.2-2.8,2-4.2 c0-0.1,0.1-0.1,0.2-0.2c0.4-0.1,0.9-0.3,1.3-0.4c1.7-0.5,3.5-1,5.2-1.6c1.1-0.3,2.1-0.7,3.2-1c1-0.3,2-0.5,3.1-0.8 c0.8-0.2,1.7-0.5,2.6-0.7c0.2,0.6,0.3,1.2,0.5,1.8c0.2,0.5,0.5,1,0.7,1.5c0.3,0.8,0.5,1.6,0.8,2.3c0.3,0.7,0.7,1.4,0.9,2.1 c0.4,0.9,0.6,1.9,1,2.8c0.2,0.7,0.6,1.3,0.8,2c0.2,0.4,0.3,0.8,0.5,1.2c0.1,0.1,0.1,0.2,0.2,0.3c0,0,0,0,0,0c0.1,0.2,1,2.2,1.2,2.8 c0.2,0.6,0.2,0.8-0.2,1.3c-0.4,0.5-1.4-0.5-1.4,0c0,0.5-0.1,1.3-0.1,1.3l3.7,0.2c0,0-1-2.3-1-3.8c0.2-0.2,0.4-0.3,0.6-0.5 c0.4,0,0.6,0.1,0.6,0.4c0.3,0.6,0.6,1.2,0.9,1.8c0.1,0.1,0.4,0.1,0.6,0.2l0.1,1.7h1.6c0,0-0.9-1.3-1.4-2.3c0-0.1-0.1-0.2-0.1-0.3 c0,0-0.1,0-0.1-0.1c-0.1-0.3-0.2-0.5-0.1-0.7c0.1-0.1,0.3-0.2,0.3-0.3c-0.1-0.3-0.2-0.7-0.3-1c-0.1-0.1-0.3-0.3-0.3-0.4 c-0.2-0.4-0.3-0.8-0.4-1.2c-0.3-0.8-0.7-1.7-1-2.5c-0.2-0.5-0.3-0.9-0.5-1.4c-0.2-0.6-0.3-1.1-0.5-1.7c-0.2-0.5-0.3-1-0.5-1.5 c-0.2-0.6-0.5-1.3-0.8-1.9c-0.1-0.4-0.2-0.7-0.3-1.1c-0.3-0.8-0.7-1.6-1-2.4c-0.2-0.7-0.5-1.4-0.7-2.2c-0.1-0.8-0.2-1.6-0.8-2.3 c-0.4-0.4-0.4-0.8-0.5-1.3c-0.3-1-0.7-2-0.9-3c-0.1-0.4-0.4-0.7-0.8-1h0.4c-0.1-0.3-0.1-0.6-0.2-0.9c-0.3-0.5-0.1-1-0.9-1.4 c-0.1,0-0.1-0.2-0.1-0.2c0-0.3,0.1-0.6,0-0.9c0-0.1-0.2-0.3-0.3-0.4c0,0,0.2-0.1,0.2-0.1c-0.1-0.1-0.1-0.3-0.3-0.3 c-0.4-0.1-0.3-0.2-0.2-0.4c0.1-0.2,0.1-0.4,0-0.7c-0.1-0.2-0.3-0.4-0.3-0.7c0-0.5-0.5-0.9-0.3-1.4c0-0.1,0-0.1-0.1-0.2 c-0.2-0.3-0.3-0.7-0.4-1c-0.3-0.9-0.6-1.9-0.8-2.8c-0.1-0.3-0.2-0.7,0.2-1.1c0.1-0.1,0-0.2,0-0.3c-0.1,0-0.1,0-0.2,0 c-0.1,0.1-0.2,0.2-0.3,0.3c-0.1,0.1-0.2,0.3-0.6,0.2c-0.1,0-0.3,0.1-0.3,0.1c-0.1,0.2-0.2,0.4-0.3,0.6c-0.1,0.2-0.2,0.3-0.3,0.5 c-0.1,0-0.1,0-0.2,0c-0.1-0.1-0.2-0.2-0.2-0.3c-0.2-0.8-0.3-1.6,0.1-2.4c0.2-0.4,0.3-0.8,0.4-1.2c-0.7-0.1-1.3-0.2-1.8,0.3 c-0.2-0.2-0.2-0.3-0.3-0.5c-0.1-0.2-0.2-0.3-0.3-0.5c-0.1-0.1-0.2-0.3-0.2-0.4c0-0.2,0.2-0.3,0.3-0.5c0,0,0-0.1,0.1-0.1H161 c-0.3,0.3-0.5,0.5-0.7,0.8c-0.6,0.7-1.1,1.4-1.6,2.2c-0.5,0.7-0.9,1.4-1.4,2c-0.5,0.8-0.9,1.5-1.4,2.3c-0.1,0.2-0.2,0.4-0.3,0.6 c-0.2,0.3-0.3,0.7-0.5,1c-0.3,0.7-0.7,1.4-1,2.1c-0.3,0.7-0.7,1.4-1,2.1c-0.2,0.4-0.3,0.7-0.4,1.1c-0.1,0.3-0.2,0.7-0.3,1 c-0.1,0.2-0.2,0.3-0.3,0.5c-0.1,0.4-0.1,0.8-0.3,1.2c-0.2,0.4-0.4,0.9-0.9,1.3c-0.4,0.3-0.4,0.7-0.6,1.1c-0.1,0.3-0.1,0.6-0.2,0.8 c-0.1,0.3-0.3,0.5-0.4,0.8c0,0,0.1,0,0.1,0.1c-0.1,0.3-0.3,0.5-0.3,0.7c0,0.2,0.2,0.5,0,0.7c-0.3,0.3-0.5,0.5-0.5,0.8 c-0.1,0.4-0.3,0.8-0.5,1.3c-0.1,0.5-0.3,0.9-0.4,1.4c0,0.1-0.1,0.2-0.1,0.4c0,0.2,0,0.5,0,0.7c-0.2,0.6-0.4,1.2-0.6,1.8 c-0.3,0.8-0.5,1.5-0.8,2.3c-0.4,1-0.8,1.9-1.1,2.9c-0.4,1.1-0.8,2.3-1.1,3.4c-0.1,0.2-0.1,0.4-0.2,0.6c-0.2,0.5-0.5,1-0.7,1.6 c-0.5,1.2-0.9,2.4-1.5,3.5c-0.1,0.2-0.2,0.6-1,0.6c-0.2,0-0.6,0.2-0.6,0.3C140.1,51.2,140.3,51.5,140.5,51.5z M169.7,32.3 c0.2,0.7,0.4,1.3,0.6,1.8c0.2,0.6,0.4,1.2,0.7,1.8c0.2,0.5,0.4,1,0.6,1.5c0.3,0.6,0.6,1.2,0.8,1.8c0.3,0.6,0.5,1.2,0.7,1.7 c0.3,0.7,0.7,1.4,1.1,2.1c0.4,0.8,0.8,1.7,1.2,2.5c0,0.1,0,0.2,0,0.3c-1-0.3-1.1-0.8-1.4-1.3c-0.3-0.5-0.5-1-0.8-1.5 c-0.1-0.3-0.2-0.5-0.3-0.8c-0.2-0.4-0.4-0.8-0.6-1.2c0.1,0,0.2-0.1,0.2-0.1c0-0.3,0-0.5,0-0.7c0-0.3-0.2-0.4-0.7-0.4 c0.1-0.1,0.2-0.2,0.3-0.3c-0.1-0.2-0.3-0.4-0.3-0.7c0-0.3-0.3-0.6-0.4-0.9c-0.3-0.6-0.5-1.2-0.7-1.8c-0.3-0.7-0.5-1.3-0.8-2 c-0.2-0.5-0.4-1-0.5-1.6C169.3,32.6,169.5,32.4,169.7,32.3z M168.5,28.6c0.1,0,0.1,0.2,0.1,0.3c0,0.1,0,0.3,0,0.5 c-0.8,0-0.3-0.5-0.8-0.7C168.2,28.6,168.4,28.6,168.5,28.6z M167.9,27.4c0.2,0.2,0.3,0.3,0.5,0.5c-0.7,0-0.8-0.1-0.7-0.3 C167.7,27.5,167.8,27.5,167.9,27.4z M167.2,24.5c0.2,0.4,0.3,0.9,0.5,1.3c-0.1,0-0.1,0-0.2,0.1c-0.1,0-0.3-0.1-0.3-0.1 c-0.1-0.4-0.1-0.8-0.2-1.3C167,24.5,167.1,24.5,167.2,24.5z M166.4,29.9c0,0.2,0.4,0.4-0.2,0.6c-1.2,0.3-2.4,0.6-3.5,1 c-1.5,0.4-3,0.9-4.5,1.3c-0.9,0.3-1.9,0.5-2.8,0.8c-0.4,0.1-0.8,0.3-1.2,0.5c-0.1,0.1-0.3,0.1-0.4,0.1c0.7-1.5,1.5-3.1,2.2-4.6 c0.5,0,1,0.1,1.5,0.1c1.2,0,2.3,0,3.5,0c1.2,0,2.4,0.1,3.5,0.1c0.5,0,1,0,1.4,0C166.1,29.7,166.4,29.8,166.4,29.9z M154.7,29 c-0.2,0-0.4,0-0.6,0c0,0,0-0.1,0-0.1c0.4-0.1,0.8-0.1,1.3-0.2C155.3,29,155.2,29.1,154.7,29z M166.2,29.1c-0.2,0-0.3,0.1-0.5,0.1 c-1.6,0-3.3-0.1-4.9-0.1c-1.1,0-2.3,0-3.4,0c-0.4,0-0.8,0-1.2-0.1c0.1-0.1,0.1-0.2,0.2-0.3c1.2,0,2.5-0.1,3.7-0.1 c1.3,0,2.6,0,3.9,0c0.6,0,1.2,0,1.8,0.1C165.9,28.7,166,29,166.2,29.1z M165.6,27.8c-1.5-0.1-3-0.2-4.5-0.3c0,0,0-0.1,0-0.1 c0.4,0,0.7-0.1,1.1-0.1c0.9,0,1.8,0.1,2.8,0.1C165.6,27.4,165.6,27.4,165.6,27.8z M164.9,19.3c0.1,0.1,0.3,0.2,0.3,0.3 c0.1,0.4,0.1,0.8,0.1,1.1c0,0-0.1,0-0.1,0c-0.1-0.3-0.3-0.6-0.4-0.8c0-0.1-0.1-0.2-0.1-0.3C164.7,19.5,164.8,19.4,164.9,19.3z M161.2,18.5c0.1-0.3,0.2-0.6,0.4-0.8c0.2-0.3,0.4-0.7,0.6-1c0.1,0,0.1,0,0.2,0c0.1,0.4,0.3,0.9,0.4,1.3c0.2,0.8,0.4,1.6,0.6,2.4 c0.2,0.7,0.3,1.4,0.6,2.1c0.3,0.8,0.6,1.6,0.9,2.5c0.1,0.3,0.2,0.6,0.2,0.8c0,0-0.3,0.1-0.4,0.2c-0.1,0-0.2,0-0.2,0 c-0.5,0-0.9,0-1.3,0c-0.6,0-1.1,0.2-1.7,0c-0.5-0.1-1.2,0-1.8,0c-0.7,0-1.3,0-2.1,0.1c0.2-0.4,0.4-0.8,0.6-1.2 c0.2-0.6,0.4-1.1,0.7-1.7c0.2-0.5,0.5-0.9,0.8-1.4c0.2-0.3,0.3-0.7,0.5-1C160.4,20.1,160.8,19.3,161.2,18.5z M160.5,15.1 c0.4,0.3,0,1.5-0.5,2.1c-0.7,0.9-0.7,0.9-1.1,0.9C159.5,17.1,160,16.1,160.5,15.1z M159.2,11.1c0,0.1,0.1,0.2,0.1,0.2 c-0.2,0.8-0.6,1.5-0.7,2.3c-0.1,0.7-0.8,1.3-1,2c-0.3,0.7-0.8,1.4-1.3,2.1C156.1,17.5,158.8,11.5,159.2,11.1z M157,23.1 c0.8-1,1.4-2,2.1-3c0.1,0,0.1,0,0.2,0c-0.2,0.4-0.3,0.8-0.5,1.2c-0.1,0.2-0.1,0.3-0.1,0.5c0,0.1,0,0.1-0.1,0.2 c-0.3,0.4-0.5,0.9-0.8,1.3c0,0,0,0,0,0.1c-0.3,0.7-0.8,1.4-1,2.2c-0.1,0.5-0.5,0.6-1.2,0.5c-0.1,0-0.2,0-0.4,0 C155.7,25.2,156.2,24.1,157,23.1z M155.6,21.9c0.1,0,0.1,0,0.1,0c0,0.3,0,0.5-0.1,0.8c-0.2,0.5-0.5,1-0.7,1.4 c-0.3,0.6-0.5,1.2-0.8,1.8c-0.2,0.4-0.2,0.4-1.1,0.4C153.9,24.8,154.7,23.3,155.6,21.9z M152.7,32.9c0.2-0.5,0.4-1.1,0.6-1.6 c0.2-0.6,0.4-1.1,0.5-1.7c0.1-0.2,0.3-0.3,0.7-0.2c0.2,0,0.4,0.1,0.6,0.1c-0.2,0.4-0.4,0.7-0.6,1.1c-0.1,0.3-0.1,0.5-0.3,0.8 c-0.3,0.6-0.7,1.2-1,1.8c-0.2,0.4-0.4,0.8-0.6,1.2c-0.1,0-0.2,0-0.4,0C152.3,34,152.5,33.5,152.7,32.9z M151.4,30 c0-0.1,0-0.2,0-0.3c0-0.2,0.2-0.3,0.7-0.3c-0.3,0.5-0.6,0.9-0.9,1.4c0,0-0.1,0-0.1,0C151.2,30.6,151.3,30.3,151.4,30z M143,50 c0.1-0.1,0.3-0.2,0.5-0.2c0.1,0,0.2,0.1,0.3,0.2c0,0.4,0,0.7-0.1,1c0,0.2-0.1,0.4-0.6,0.3c-0.3-0.1-0.5-0.3-0.5-0.4 C142.7,50.6,142.8,50.3,143,50z"></path> </g> </svg> 