<?xml version="1.0" standalone="no"?>
<!DOCTYPE svg PUBLIC "-//W3C//DTD SVG 20010904//EN"
 "http://www.w3.org/TR/2001/REC-SVG-20010904/DTD/svg10.dtd">
<svg version="1.0" xmlns="http://www.w3.org/2000/svg"
 width="1200.000000pt" height="1408.000000pt" viewBox="0 0 1200.000000 1408.000000"
 preserveAspectRatio="xMidYMid meet">

<g transform="translate(0.000000,1408.000000) scale(0.100000,-0.100000)"
fill="#000000" stroke="none">
<path d="M5630 14062 c-14 -1 -39 -5 -55 -7 l-31 -5 33 -273 c18 -149 34 -315
35 -368 2 -86 -1 -102 -23 -145 -36 -70 -108 -106 -224 -112 -76 -4 -90 -2
-137 21 -100 50 -113 90 -163 507 -19 162 -35 299 -35 303 0 7 -109 -1 -118
-8 -8 -7 71 -619 89 -685 33 -123 86 -188 189 -231 50 -20 238 -18 310 3 109
33 189 107 220 203 8 22 13 83 13 135 0 93 -58 620 -71 650 -4 9 -17 14 -32
12z"/>
<path d="M6056 14018 c-3 -29 -15 -226 -26 -438 -11 -212 -22 -404 -25 -426
l-4 -41 56 -7 c31 -4 57 -5 59 -4 1 2 12 172 24 378 12 206 24 377 27 380 3 3
8 1 10 -5 2 -5 107 -183 232 -395 l228 -385 61 -3 c57 -3 62 -1 66 20 3 13 14
205 26 428 11 223 23 428 26 457 l6 51 -56 7 c-31 4 -58 6 -60 4 -2 -2 -11
-141 -20 -309 -20 -374 -26 -451 -36 -445 -4 2 -110 180 -236 394 l-229 390
-62 1 -62 0 -5 -52z"/>
<path d="M7180 13968 c0 -1 -38 -214 -85 -473 -58 -324 -81 -471 -74 -476 12
-7 100 -21 105 -16 2 2 40 205 84 453 45 247 84 459 86 471 4 15 0 23 -13 26
-27 8 -103 19 -103 15z"/>
<path d="M4400 13861 l-75 -26 3 -445 c2 -382 1 -443 -11 -430 -8 8 -130 164
-272 345 -142 182 -259 331 -260 333 -4 4 -158 -49 -168 -58 -8 -7 296 -883
313 -903 5 -5 93 17 107 28 2 1 -38 116 -88 256 -155 433 -188 529 -184 529 2
0 124 -152 271 -337 146 -186 269 -341 273 -345 3 -3 30 3 59 14 l53 20 -7
431 c-4 238 -3 429 2 424 4 -4 67 -174 140 -378 73 -204 134 -373 137 -375 3
-3 96 24 105 31 2 2 -317 907 -322 911 0 1 -35 -10 -76 -25z"/>
<path d="M7800 13774 c-74 -20 -126 -52 -186 -116 -63 -67 -95 -122 -130 -223
-25 -70 -28 -95 -28 -205 -1 -126 -1 -126 37 -202 44 -90 91 -135 192 -183
135 -64 256 -70 368 -17 61 29 130 86 163 137 19 29 15 34 -53 72 l-32 17 -23
-30 c-65 -83 -125 -116 -218 -122 -83 -5 -159 22 -224 80 -65 57 -88 106 -94
201 -11 191 91 408 225 473 81 40 181 40 268 1 98 -46 138 -98 155 -204 5 -31
11 -57 12 -58 2 -1 30 -6 62 -10 l59 -7 -7 56 c-3 31 -15 80 -27 110 -66 178
-310 286 -519 230z"/>
<path d="M8531 13033 c-122 -234 -219 -429 -214 -433 16 -14 93 -53 97 -49 9
11 447 851 444 854 -2 1 -26 14 -53 28 l-51 25 -223 -425z"/>
<path d="M8916 12828 c-157 -211 -286 -385 -286 -389 0 -3 21 -21 46 -39 40
-28 49 -31 58 -19 6 9 58 79 116 157 58 79 109 141 116 138 7 -3 66 -45 132
-94 149 -111 216 -145 297 -150 53 -3 68 0 125 30 101 52 170 161 170 267 0
49 -39 128 -86 175 -35 35 -387 306 -398 306 -2 0 -133 -172 -290 -382z m462
124 c173 -131 190 -155 182 -252 -4 -49 -52 -111 -107 -139 -34 -17 -102 -13
-147 9 -45 22 -269 185 -274 200 -6 16 200 281 215 276 7 -3 66 -45 131 -94z"/>
<path d="M2555 12920 c-149 -116 -271 -214 -273 -218 -1 -4 124 -169 279 -367
154 -198 287 -368 294 -379 12 -17 34 -2 292 199 153 119 279 220 281 225 4
10 -46 80 -57 80 -3 0 -109 -81 -236 -180 -126 -99 -233 -179 -236 -177 -6 2
-102 122 -182 228 l-27 36 210 163 c116 90 210 166 210 168 0 4 -14 25 -56 81
-2 1 -94 -68 -206 -155 -112 -86 -208 -161 -214 -166 -7 -5 -43 32 -103 109
-50 65 -91 121 -91 124 0 3 101 84 224 180 240 186 231 175 183 232 l-23 27
-269 -210z"/>
<path d="M5539 12263 c-256 -258 -476 -484 -487 -504 -122 -204 5 -483 248
-545 114 -29 238 -3 334 71 80 61 163 236 153 322 -7 68 -69 123 -137 123 -73
0 -131 -57 -138 -132 -3 -44 0 -59 21 -90 l26 -37 -36 -31 c-44 -39 -72 -50
-130 -50 -119 0 -220 113 -199 224 8 44 70 110 395 425 l241 233 0 -881 0
-881 -1281 0 -1282 0 6 -557 c6 -546 10 -660 42 -1048 25 -303 98 -879 121
-958 5 -17 -19 -18 -508 -15 l-513 3 -66 32 c-171 84 -285 285 -264 467 28
254 248 441 495 424 150 -11 261 -106 277 -236 7 -65 -12 -126 -54 -173 -48
-53 -94 -76 -190 -92 l-78 -13 50 -36 c125 -91 268 -81 384 27 77 72 95 119
96 245 0 99 -2 109 -32 171 -73 147 -233 237 -452 255 -258 20 -522 -157 -611
-409 -27 -77 -42 -189 -34 -262 16 -149 100 -317 200 -403 l46 -39 -179 -47
c-241 -64 -286 -77 -282 -81 2 -2 101 -29 219 -60 118 -31 220 -58 226 -60 6
-2 -20 -35 -57 -74 -153 -159 -211 -383 -153 -590 59 -210 236 -383 447 -438
168 -43 401 6 533 113 126 102 171 313 99 461 -52 106 -186 182 -300 170 -60
-6 -139 -43 -174 -81 l-24 -26 36 0 c152 0 268 -89 284 -218 21 -179 -157
-315 -370 -282 -258 39 -439 283 -398 534 29 176 150 318 319 375 59 20 81 21
576 21 l514 0 22 -97 c228 -1021 617 -1845 1132 -2398 302 -323 583 -534 949
-709 85 -40 171 -79 192 -86 l37 -12 0 -911 -1 -912 88 -372 c48 -205 88 -371
90 -369 1 1 41 164 88 362 l85 359 0 918 0 918 63 27 c916 390 1553 1118 1982
2267 98 262 209 645 270 933 l18 82 513 0 c475 0 517 -1 573 -19 228 -71 369
-309 320 -543 -56 -272 -369 -450 -604 -344 -169 76 -215 279 -91 394 56 51
103 71 185 79 l65 6 -42 37 c-142 127 -375 66 -461 -119 -21 -48 -25 -69 -24
-146 1 -118 26 -185 98 -263 82 -89 194 -140 355 -161 180 -24 372 46 504 184
231 240 233 610 4 851 -68 71 -69 74 -47 82 13 5 117 33 231 63 114 29 202 56
195 60 -7 3 -111 32 -232 63 l-221 58 67 68 c109 110 179 279 179 430 0 223
-139 448 -337 548 -149 74 -284 88 -446 46 -156 -40 -256 -113 -314 -230 -35
-71 -37 -81 -37 -172 0 -77 4 -106 20 -142 60 -132 205 -214 334 -190 56 11
123 44 153 78 17 19 17 19 -35 26 -170 22 -261 106 -262 241 0 281 402 360
634 126 229 -231 166 -609 -125 -752 l-70 -34 -507 -3 c-417 -2 -508 0 -508
11 0 7 13 101 30 207 36 236 74 577 94 840 32 412 52 1071 41 1344 l-8 176
-1278 0 -1279 0 0 881 0 881 38 -30 c50 -41 565 -561 586 -592 31 -47 13 -145
-37 -198 -73 -79 -204 -83 -284 -9 -28 25 -28 31 -1 67 45 61 19 164 -52 201
-88 47 -190 -4 -206 -103 -7 -39 35 -170 71 -228 29 -46 103 -114 152 -138
175 -90 407 -20 509 153 35 60 57 159 51 224 -13 120 -25 135 -534 644 l-468
467 -466 -467z m-112 -2149 c28 -58 37 -94 43 -157 l7 -82 2 66 c1 67 17 99
42 84 18 -11 49 -88 51 -129 3 -40 13 -47 21 -16 3 12 14 20 27 20 16 0 27
-13 44 -52 14 -31 26 -47 30 -40 4 7 18 12 31 12 31 0 39 -27 33 -115 -2 -36
0 -59 4 -52 4 6 8 26 8 44 0 29 28 63 52 63 18 0 38 -35 38 -68 0 -23 3 -32 8
-24 11 16 72 33 94 26 40 -12 12 -76 -52 -115 -27 -17 -50 -33 -50 -36 0 -8
73 38 102 65 19 17 42 26 78 30 l52 5 -17 -32 c-10 -20 -32 -40 -58 -52 -23
-10 -31 -16 -17 -13 14 3 37 14 52 25 33 23 96 26 104 4 10 -24 -22 -63 -58
-71 -29 -6 -30 -8 -13 -14 16 -6 31 2 68 39 66 64 108 130 152 241 58 149 92
205 161 270 109 102 233 123 434 75 127 -31 500 -154 500 -165 0 -14 -60 -30
-156 -42 -89 -11 -92 -12 -72 -28 27 -21 18 -46 -19 -61 -16 -6 -64 -9 -109
-7 -68 4 -94 10 -159 41 -43 21 -80 36 -82 34 -2 -2 34 -21 79 -41 133 -60
133 -60 133 -86 0 -19 -8 -28 -35 -37 -61 -22 -110 -8 -225 61 l-30 18 25 -21
c14 -12 53 -35 88 -53 63 -31 88 -66 64 -90 -16 -16 -94 -11 -156 10 -30 10
-53 15 -50 11 3 -5 24 -14 47 -20 49 -14 67 -33 67 -70 0 -29 -15 -39 -60 -39
-44 0 -78 20 -110 64 -17 22 -30 35 -30 28 0 -10 56 -71 93 -100 22 -17 24
-110 3 -118 -7 -3 -30 1 -49 10 -28 11 -43 28 -66 73 -17 32 -30 54 -31 50 0
-14 48 -103 64 -116 11 -10 16 -31 16 -72 0 -69 -11 -75 -59 -30 -17 16 -31
25 -31 21 0 -5 5 -12 10 -15 6 -3 11 -23 11 -43 2 -30 3 -32 6 -9 5 29 13 33
30 16 18 -18 43 -2 43 26 l0 25 58 -29 c131 -66 318 -205 343 -255 9 -18 7
-17 -14 5 -59 61 -121 102 -239 159 -70 33 -132 60 -139 60 -8 -1 37 -25 99
-55 123 -59 224 -126 266 -175 45 -54 34 -60 -56 -28 -124 45 -217 48 -353 13
l-107 -27 -39 38 c-33 32 -40 35 -54 24 -14 -12 -13 -16 10 -40 l26 -27 -23
-7 c-13 -3 -51 -6 -86 -6 -60 0 -63 -1 -57 -21 8 -23 4 -22 -47 13 -16 11 -28
15 -28 9 0 -5 6 -14 13 -18 6 -4 21 -19 32 -32 17 -21 12 -19 -29 9 -33 22
-47 28 -43 17 20 -50 20 -51 -10 -24 -34 32 -48 35 -33 7 9 -17 3 -15 -37 10
-57 36 -69 38 -47 6 15 -25 15 -25 -40 5 -31 17 -110 43 -178 60 -132 32 -294
82 -343 107 -16 8 -78 61 -137 119 -145 140 -206 164 -353 140 -49 -9 -50 -9
-32 10 29 33 17 52 -36 53 -39 1 39 57 111 81 71 24 199 28 262 9 19 -5 45
-10 57 -10 l22 0 -21 47 c-29 66 -34 193 -14 383 18 165 26 220 33 220 2 0 20
-34 40 -76z m13 -1835 c21 -56 31 -98 32 -146 l2 -68 5 75 c5 62 9 75 24 78
29 6 59 -52 70 -135 4 -27 17 -43 17 -21 0 9 7 21 15 28 12 10 19 7 40 -16 14
-15 25 -35 25 -44 0 -25 9 -30 37 -17 37 16 53 -11 55 -92 1 -39 3 -52 5 -32
7 55 61 82 83 42 19 -36 11 -79 -21 -118 l-32 -38 34 36 c19 19 39 44 44 54 8
13 23 18 55 19 l45 1 -2 -35 c-1 -25 -9 -41 -30 -57 -15 -13 -25 -23 -21 -23
4 0 22 13 40 29 19 17 51 31 76 36 37 6 42 5 42 -12 0 -25 -18 -47 -55 -67
-16 -8 -25 -15 -20 -16 6 0 25 9 43 20 43 26 112 27 112 2 0 -27 -35 -59 -72
-68 -29 -6 -30 -8 -13 -14 16 -6 0 -17 -79 -55 -55 -25 -120 -61 -145 -79
l-46 -33 -92 23 c-105 26 -193 62 -190 76 1 6 -11 14 -27 19 -28 8 -76 46 -76
60 0 4 12 10 28 12 15 2 -8 5 -52 6 l-79 1 26 -20 c14 -11 41 -27 59 -36 l33
-15 -35 7 c-19 3 -61 17 -93 31 -33 13 -64 22 -70 19 -7 -2 -5 -5 3 -5 9 -1
72 -46 140 -100 139 -111 226 -161 294 -168 44 -5 47 -4 118 61 56 52 100 80
187 122 184 88 263 183 352 422 31 82 104 189 156 228 105 79 241 95 426 49
138 -35 498 -156 492 -166 -9 -14 -144 -39 -222 -40 -43 -1 -66 -4 -52 -6 33
-5 64 -37 56 -57 -13 -34 -139 -46 -222 -21 -58 17 -74 13 -18 -5 115 -37 87
-107 -40 -98 -49 3 -56 2 -35 -6 32 -11 49 -62 27 -78 -21 -14 -121 -2 -173
21 -26 11 -44 16 -41 11 3 -4 27 -16 53 -26 55 -20 72 -38 72 -76 0 -32 -30
-45 -81 -34 -27 5 -29 4 -19 -14 13 -24 13 -107 0 -115 -5 -3 -29 3 -53 13
-32 14 -47 29 -61 61 -11 22 -21 39 -23 37 -7 -6 34 -81 51 -95 11 -10 16 -31
16 -72 0 -33 -2 -59 -5 -59 -4 0 -19 7 -35 15 -20 10 -35 31 -49 67 -11 29
-20 46 -20 38 0 -8 8 -35 19 -59 11 -24 21 -57 21 -75 2 -31 2 -31 6 -3 4 22
8 27 21 22 35 -15 47 -10 50 18 2 15 6 27 9 27 3 0 36 -16 72 -37 110 -60 233
-149 286 -205 37 -39 39 -43 10 -16 -22 20 -68 54 -102 76 -64 41 -251 127
-259 120 -2 -3 35 -22 83 -44 110 -48 217 -118 266 -172 31 -36 46 -62 34 -62
-2 0 -37 12 -78 26 -113 40 -235 43 -364 10 l-100 -26 -36 36 c-24 23 -41 33
-52 28 -22 -8 -22 -11 11 -39 15 -13 24 -26 21 -29 -3 -4 -43 -9 -88 -13 -76
-6 -81 -7 -75 -26 6 -20 6 -20 -22 0 -54 37 -59 37 -26 0 17 -21 32 -40 32
-42 0 -3 -19 8 -42 25 -45 33 -56 33 -39 2 17 -33 13 -33 -21 -2 -35 32 -46
33 -29 2 9 -16 0 -13 -40 14 -55 37 -75 38 -43 3 10 -12 15 -20 9 -17 -5 2
-35 16 -65 31 -30 14 -103 38 -162 52 -131 30 -289 80 -342 107 -22 11 -90 69
-153 129 -99 95 -120 111 -169 125 -56 16 -138 15 -194 -2 l-25 -8 18 28 c22
33 15 46 -26 46 l-32 1 39 34 c47 42 88 52 121 31 13 -9 30 -16 37 -16 7 0 -2
8 -20 17 -27 13 -31 18 -18 25 33 18 141 21 220 4 43 -9 99 -15 125 -14 l46 1
-42 4 c-38 4 -43 7 -58 46 -25 62 -29 200 -11 377 22 208 25 223 42 209 7 -6
27 -46 44 -90z m10 -1833 c11 -33 21 -89 22 -125 l2 -66 5 75 c5 67 8 75 28
78 14 2 26 -4 34 -19 17 -32 39 -121 33 -131 -3 -4 0 -8 5 -8 6 0 11 7 11 15
0 24 29 29 50 10 11 -10 24 -33 31 -52 8 -25 14 -32 22 -24 17 17 45 13 57 -8
5 -11 11 -48 11 -83 2 -55 3 -58 8 -23 5 32 11 42 34 50 24 8 31 6 43 -10 24
-33 17 -81 -18 -122 l-32 -38 32 30 c18 16 35 40 38 52 4 16 16 24 39 29 54
10 70 2 69 -33 -2 -30 -1 -31 30 -22 17 5 43 9 58 9 26 0 27 -2 17 -27 -5 -14
-17 -33 -27 -41 -11 -9 -8 -9 10 2 31 18 66 20 88 6 27 -17 -8 -62 -65 -83
-41 -15 -44 -17 -15 -13 l35 6 -25 -19 c-14 -11 -56 -32 -93 -47 -37 -15 -70
-31 -73 -35 -6 -11 113 37 145 57 113 73 190 176 255 342 53 134 91 197 158
256 101 92 248 114 433 67 94 -24 465 -144 493 -160 24 -13 -71 -39 -183 -50
-50 -4 -80 -9 -67 -10 26 -1 52 -45 36 -61 -6 -6 -36 -15 -67 -20 -75 -14
-150 0 -244 45 -40 19 -73 32 -73 29 0 -4 94 -49 188 -90 41 -18 43 -48 2 -69
-58 -30 -119 -17 -225 49 l-30 18 25 -21 c14 -12 51 -34 83 -49 61 -29 80 -59
56 -88 -11 -13 -25 -15 -66 -10 l-54 6 16 -24 c23 -34 16 -69 -15 -76 -47 -12
-93 7 -134 52 -21 24 -34 33 -27 21 6 -12 31 -39 56 -60 43 -36 45 -39 45 -91
l0 -55 -36 6 c-42 7 -60 20 -86 62 -10 17 -18 25 -18 18 0 -7 14 -28 31 -47
29 -33 30 -40 27 -100 -1 -35 -1 -63 1 -60 2 2 9 0 15 -5 6 -5 48 -25 94 -45
134 -58 268 -152 291 -204 7 -13 10 -26 9 -27 -2 -2 -43 11 -93 27 -116 40
-232 43 -345 10 -97 -29 -108 -28 -146 9 -22 22 -38 30 -50 25 -15 -6 -14 -10
9 -34 35 -36 34 -42 -5 -42 -76 0 -136 -12 -131 -26 7 -20 -8 -17 -37 6 -38
30 -47 24 -15 -10 33 -35 26 -39 -17 -9 -29 21 -52 19 -30 -3 22 -22 12 -32
-10 -11 -41 36 -49 37 -37 6 l10 -28 -23 21 c-13 12 -39 30 -57 39 l-35 18 18
-28 18 -27 -45 26 c-25 15 -107 42 -183 62 -151 38 -311 88 -359 112 -16 8
-74 60 -128 114 -118 120 -170 148 -267 148 -36 0 -80 -4 -98 -10 l-34 -9 17
25 c19 29 12 44 -21 44 -38 0 -29 26 19 55 49 28 83 31 111 10 11 -8 27 -15
35 -15 9 1 1 7 -16 15 -63 27 -33 45 77 45 36 0 97 -7 135 -15 39 -8 99 -15
135 -16 55 -1 60 -3 30 -9 -29 -6 -31 -8 -9 -9 29 -1 89 17 89 27 0 4 -40 5
-89 4 l-88 -4 -17 49 c-33 92 -31 275 5 527 l12 79 23 -39 c13 -21 33 -66 44
-98z m1292 -767 c135 -77 275 -181 304 -228 12 -18 3 -13 -27 16 -63 59 -149
112 -267 162 -89 38 -102 46 -102 67 0 13 4 24 9 24 5 0 42 -19 83 -41z"/>
<path d="M6583 10004 c-68 -33 -118 -90 -159 -180 -49 -106 -41 -105 11 2 48
98 89 144 162 176 24 10 43 21 43 23 0 8 -3 6 -57 -21z"/>
<path d="M6740 10010 c8 -5 20 -10 25 -10 6 0 3 5 -5 10 -8 5 -19 10 -25 10
-5 0 -3 -5 5 -10z"/>
<path d="M6851 9996 c8 -8 133 -56 136 -52 2 2 -26 15 -62 30 -62 25 -84 31
-74 22z"/>
<path d="M6720 9956 c0 -3 9 -10 20 -16 11 -6 20 -8 20 -6 0 3 -9 10 -20 16
-11 6 -20 8 -20 6z"/>
<path d="M7027 9925 c17 -8 51 -17 75 -20 l43 -5 -50 13 c-27 8 -61 17 -75 20
-17 5 -15 2 7 -8z"/>
<path d="M6684 9901 c4 -6 16 -16 28 -22 15 -8 18 -8 14 0 -4 6 -16 16 -28 22
-15 8 -18 8 -14 0z"/>
<path d="M5462 9845 c0 -16 2 -22 5 -12 2 9 2 23 0 30 -3 6 -5 -1 -5 -18z"/>
<path d="M6665 9840 c10 -11 20 -20 23 -20 3 0 -3 9 -13 20 -10 11 -20 20 -23
20 -3 0 3 -9 13 -20z"/>
<path d="M5572 9825 c0 -16 2 -22 5 -12 2 9 2 23 0 30 -3 6 -5 -1 -5 -18z"/>
<path d="M5452 9790 c0 -14 2 -19 5 -12 2 6 2 18 0 25 -3 6 -5 1 -5 -13z"/>
<path d="M6610 9806 c0 -2 14 -14 30 -26 17 -12 30 -19 30 -16 0 2 -13 14 -30
26 -16 12 -30 19 -30 16z"/>
<path d="M5561 9774 c0 -11 3 -14 6 -6 3 7 2 16 -1 19 -3 4 -6 -2 -5 -13z"/>
<path d="M5672 9770 c0 -14 2 -19 5 -12 2 6 2 18 0 25 -3 6 -5 1 -5 -13z"/>
<path d="M6600 9725 c13 -14 26 -25 28 -25 3 0 -5 11 -18 25 -13 14 -26 25
-28 25 -3 0 5 -11 18 -25z"/>
<path d="M5652 9715 c-17 -37 -14 -45 4 -12 9 16 14 31 11 33 -2 2 -9 -7 -15
-21z"/>
<path d="M6355 9672 c-17 -31 -59 -88 -95 -127 -36 -38 -51 -59 -35 -46 56 43
178 211 163 226 -2 2 -17 -22 -33 -53z"/>
<path d="M6550 9670 c6 -11 13 -20 16 -20 2 0 0 9 -6 20 -6 11 -13 20 -16 20
-2 0 0 -9 6 -20z"/>
<path d="M5830 9618 c-15 -21 -17 -28 -6 -19 16 13 41 51 33 51 -2 0 -14 -15
-27 -32z"/>
<path d="M6511 9623 c7 -12 15 -20 18 -17 3 2 -3 12 -13 22 -17 16 -18 16 -5
-5z"/>
<path d="M6480 9580 c6 -11 13 -20 16 -20 2 0 0 9 -6 20 -6 11 -13 20 -16 20
-2 0 0 -9 6 -20z"/>
<path d="M6440 9555 c0 -5 5 -17 10 -25 5 -8 10 -10 10 -5 0 6 -5 17 -10 25
-5 8 -10 11 -10 5z"/>
<path d="M5524 9541 c4 -5 -20 -7 -56 -4 -35 3 -61 3 -58 1 3 -3 31 -8 62 -11
40 -4 62 -1 75 8 17 14 17 14 -5 15 -13 0 -21 -4 -18 -9z"/>
<path d="M5060 9536 c0 -14 63 -36 97 -35 l38 2 -45 6 c-25 4 -55 12 -67 19
-13 7 -23 10 -23 8z"/>
<path d="M6402 9500 c0 -19 2 -27 5 -17 2 9 2 25 0 35 -3 9 -5 1 -5 -18z"/>
<path d="M5329 9506 c7 -8 31 -24 54 -36 l42 -21 -35 6 c-19 4 -61 18 -92 31
-32 13 -65 24 -75 23 -10 0 -4 -5 12 -10 17 -5 84 -52 150 -105 165 -132 274
-185 333 -163 15 6 55 37 89 70 47 45 87 71 166 108 57 27 107 53 110 58 4 6
-13 0 -36 -11 -23 -12 -66 -32 -95 -45 -30 -13 -74 -39 -98 -57 l-45 -34 -97
24 c-111 28 -196 62 -188 75 4 5 -9 14 -27 20 -19 6 -46 25 -62 41 l-28 29 44
4 c24 2 4 4 -45 5 -76 2 -87 0 -77 -12z"/>
<path d="M6512 9495 c0 -11 4 -31 8 -45 6 -20 8 -21 8 -5 0 11 -4 31 -8 45 -6
20 -8 21 -8 5z"/>
<path d="M6362 9475 c0 -16 2 -22 5 -12 2 9 2 23 0 30 -3 6 -5 -1 -5 -18z"/>
<path d="M5034 9479 c-8 -14 11 -33 25 -25 16 10 13 36 -3 36 -8 0 -18 -5 -22
-11z"/>
<path d="M5995 9480 c-27 -7 -27 -8 -5 -8 14 0 36 4 50 8 20 6 21 8 5 8 -11 0
-33 -4 -50 -8z"/>
<path d="M6443 9420 c0 -30 2 -43 4 -27 2 15 2 39 0 55 -2 15 -4 2 -4 -28z"/>
<path d="M6252 9435 c-17 -37 -14 -45 4 -12 9 16 14 31 11 33 -2 2 -9 -7 -15
-21z"/>
<path d="M6286 9434 c-4 -14 -5 -28 -3 -31 3 -2 8 8 11 23 4 14 5 28 3 31 -3
2 -8 -8 -11 -23z"/>
<path d="M6322 9435 c0 -16 2 -22 5 -12 2 9 2 23 0 30 -3 6 -5 -1 -5 -18z"/>
<path d="M6531 9404 c0 -11 3 -14 6 -6 3 7 2 16 -1 19 -3 4 -6 -2 -5 -13z"/>
<path d="M6312 9380 c0 -14 2 -19 5 -12 2 6 2 18 0 25 -3 6 -5 1 -5 -13z"/>
<path d="M6384 9310 c0 -52 1 -74 3 -47 2 26 2 68 0 95 -2 26 -3 4 -3 -48z"/>
<path d="M6221 9363 c-10 -26 -10 -27 4 -9 8 11 15 23 15 28 0 15 -7 8 -19
-19z"/>
<path d="M6256 9334 c-10 -31 -16 -58 -14 -60 3 -2 12 21 22 52 10 31 16 58
14 60 -3 2 -12 -21 -22 -52z"/>
<path d="M6452 9335 c0 -16 2 -22 5 -12 2 9 2 23 0 30 -3 6 -5 -1 -5 -18z"/>
<path d="M6302 9325 c0 -16 2 -22 5 -12 2 9 2 23 0 30 -3 6 -5 -1 -5 -18z"/>
<path d="M6461 9280 c-1 -18 9 -31 34 -47 47 -31 54 -29 15 4 -18 14 -36 36
-40 47 -8 20 -9 19 -9 -4z"/>
<path d="M6076 9271 c-9 -10 -34 -26 -56 -36 -41 -19 -45 -36 -7 -34 19 1 19
2 3 6 -14 4 -7 12 33 34 28 16 51 34 51 39 0 14 -5 12 -24 -9z"/>
<path d="M6115 9249 c-27 -16 -45 -29 -40 -29 6 0 25 9 43 20 18 11 34 20 37
20 7 0 -33 -64 -55 -88 l-20 -22 27 -6 c19 -5 39 -1 65 14 l38 20 0 -44 0 -45
30 16 c30 15 57 52 46 63 -3 3 -6 0 -6 -6 0 -15 -36 -52 -50 -52 -5 0 -10 24
-10 52 0 49 -1 51 -15 32 -16 -24 -66 -47 -89 -42 -12 2 -8 14 20 56 20 29 34
56 32 61 -2 5 -25 -4 -53 -20z"/>
<path d="M6556 9223 c-6 -14 -5 -15 5 -6 7 7 10 15 7 18 -3 3 -9 -2 -12 -12z"/>
<path d="M6461 9193 c-1 -44 -20 -51 -48 -18 -28 32 -26 33 -42 -22 -14 -50
-25 -54 -45 -15 -8 15 -15 22 -16 17 0 -15 29 -55 41 -55 5 0 18 18 27 41 l17
41 19 -21 c11 -12 25 -21 32 -21 16 0 28 40 21 67 -3 10 -5 5 -6 -14z"/>
<path d="M6290 9198 c0 -9 5 -20 10 -23 13 -8 13 5 0 25 -8 13 -10 13 -10 -2z"/>
<path d="M6610 8210 c-8 -5 -10 -10 -5 -10 6 0 17 5 25 10 8 5 11 10 5 10 -5
0 -17 -5 -25 -10z"/>
<path d="M6514 8148 c-25 -23 -50 -51 -56 -62 -5 -12 4 -4 21 16 18 20 46 49
64 62 18 14 29 26 24 26 -4 0 -28 -19 -53 -42z"/>
<path d="M6865 8180 c27 -12 43 -12 25 0 -8 5 -22 9 -30 9 -10 0 -8 -3 5 -9z"/>
<path d="M6920 8160 c8 -5 20 -10 25 -10 6 0 3 5 -5 10 -8 5 -19 10 -25 10 -5
0 -3 -5 5 -10z"/>
<path d="M6710 8157 c0 -3 12 -12 26 -22 15 -9 23 -12 20 -6 -7 11 -46 35 -46
28z"/>
<path d="M6970 8140 c8 -5 20 -10 25 -10 6 0 3 5 -5 10 -8 5 -19 10 -25 10 -5
0 -3 -5 5 -10z"/>
<path d="M7035 8115 c17 -8 39 -14 50 -14 11 0 0 7 -25 15 -56 17 -64 17 -25
-1z"/>
<path d="M6681 8097 c2 -1 15 -11 29 -22 l25 -20 -19 23 c-11 12 -24 22 -29
22 -6 0 -8 -1 -6 -3z"/>
<path d="M5462 8040 c0 -14 2 -19 5 -12 2 6 2 18 0 25 -3 6 -5 1 -5 -13z"/>
<path d="M6864 8046 c11 -9 24 -16 30 -16 12 0 7 5 -24 19 -24 11 -24 11 -6
-3z"/>
<path d="M6665 8030 c10 -11 20 -20 23 -20 3 0 -3 9 -13 20 -10 11 -20 20 -23
20 -3 0 3 -9 13 -20z"/>
<path d="M5572 8015 c0 -16 2 -22 5 -12 2 9 2 23 0 30 -3 6 -5 -1 -5 -18z"/>
<path d="M6401 7969 c-12 -29 -20 -54 -18 -56 2 -2 14 20 26 48 12 29 20 54
18 56 -2 2 -14 -20 -26 -48z"/>
<path d="M5452 7985 c0 -16 2 -22 5 -12 2 9 2 23 0 30 -3 6 -5 -1 -5 -18z"/>
<path d="M6640 7975 c13 -14 26 -25 28 -25 3 0 -5 11 -18 25 -13 14 -26 25
-28 25 -3 0 5 -11 18 -25z"/>
<path d="M6740 7986 c0 -7 91 -69 95 -64 2 1 -19 18 -46 36 -27 18 -49 30 -49
28z"/>
<path d="M5556 7954 c-4 -14 -5 -28 -3 -31 3 -2 8 8 11 23 4 14 5 28 3 31 -3
2 -8 -8 -11 -23z"/>
<path d="M5672 7960 c0 -14 2 -19 5 -12 2 6 2 18 0 25 -3 6 -5 1 -5 -13z"/>
<path d="M6595 7920 c10 -11 20 -20 23 -20 3 0 -3 9 -13 20 -10 11 -20 20 -23
20 -3 0 3 -9 13 -20z"/>
<path d="M5652 7905 c-17 -37 -14 -45 4 -12 9 16 14 31 11 33 -2 2 -9 -7 -15
-21z"/>
<path d="M6322 7812 c-17 -27 -54 -69 -81 -95 -28 -26 -46 -47 -42 -47 13 0
129 127 146 160 23 45 12 36 -23 -18z"/>
<path d="M6500 7833 c0 -6 8 -17 18 -24 16 -13 16 -13 2 6 -8 11 -16 22 -17
24 -2 2 -3 0 -3 -6z"/>
<path d="M6610 7814 c1 -11 38 -54 65 -74 11 -8 2 6 -20 30 -22 25 -41 47 -42
49 -2 2 -3 0 -3 -5z"/>
<path d="M6470 7794 c0 -6 7 -19 16 -30 14 -18 14 -18 3 6 -14 31 -19 36 -19
24z"/>
<path d="M5880 7755 c-14 -8 -20 -14 -14 -15 5 0 19 7 30 15 24 18 16 19 -16
0z"/>
<path d="M6550 7755 c0 -5 5 -17 10 -25 5 -8 10 -10 10 -5 0 6 -5 17 -10 25
-5 8 -10 11 -10 5z"/>
<path d="M5510 7740 c-37 -6 -40 -7 -15 -9 30 -3 30 -3 5 -11 -16 -5 -19 -8
-8 -9 22 -1 68 20 68 31 0 4 -1 7 -2 6 -2 0 -23 -4 -48 -8z"/>
<path d="M6402 7700 c0 -19 2 -27 5 -17 2 9 2 25 0 35 -3 9 -5 1 -5 -18z"/>
<path d="M5188 7703 c6 -2 18 -2 25 0 6 3 1 5 -13 5 -14 0 -19 -2 -12 -5z"/>
<path d="M5138 7693 c6 -2 18 -2 25 0 6 3 1 5 -13 5 -14 0 -19 -2 -12 -5z"/>
<path d="M6511 7684 c0 -11 3 -14 6 -6 3 7 2 16 -1 19 -3 4 -6 -2 -5 -13z"/>
<path d="M6362 7670 c0 -14 2 -19 5 -12 2 6 2 18 0 25 -3 6 -5 1 -5 -13z"/>
<path d="M5034 7668 c-4 -6 -2 -14 4 -16 19 -6 26 -3 28 13 3 18 -22 20 -32 3z"/>
<path d="M6018 7673 c6 -2 18 -2 25 0 6 3 1 5 -13 5 -14 0 -19 -2 -12 -5z"/>
<path d="M5978 7663 c7 -3 16 -2 19 1 4 3 -2 6 -13 5 -11 0 -14 -3 -6 -6z"/>
<path d="M6443 7615 c0 -27 2 -38 4 -22 2 15 2 37 0 50 -2 12 -4 0 -4 -28z"/>
<path d="M6522 7640 c0 -14 2 -19 5 -12 2 6 2 18 0 25 -3 6 -5 1 -5 -13z"/>
<path d="M6322 7630 c0 -14 2 -19 5 -12 2 6 2 18 0 25 -3 6 -5 1 -5 -13z"/>
<path d="M6237 7595 c-24 -50 -20 -58 4 -12 11 22 19 41 17 43 -3 2 -12 -12
-21 -31z"/>
<path d="M6276 7594 c-4 -14 -5 -28 -3 -31 3 -2 8 8 11 23 4 14 5 28 3 31 -3
2 -8 -8 -11 -23z"/>
<path d="M6312 7575 c0 -16 2 -22 5 -12 2 9 2 23 0 30 -3 6 -5 -1 -5 -18z"/>
<path d="M6384 7500 c0 -52 1 -74 3 -47 2 26 2 68 0 95 -2 26 -3 4 -3 -48z"/>
<path d="M6452 7525 c0 -16 2 -22 5 -12 2 9 2 23 0 30 -3 6 -5 -1 -5 -18z"/>
<path d="M6302 7520 c0 -14 2 -19 5 -12 2 6 2 18 0 25 -3 6 -5 1 -5 -13z"/>
<path d="M6251 7513 c-1 -6 -4 -20 -7 -30 -5 -17 -5 -17 6 0 6 10 9 23 6 30
-3 9 -5 9 -5 0z"/>
<path d="M6461 7474 c-1 -12 12 -30 32 -44 l32 -23 -26 29 c-15 16 -29 36 -32
44 -4 10 -6 9 -6 -6z"/>
<path d="M6074 7458 l-19 -23 23 19 c21 18 27 26 19 26 -2 0 -12 -10 -23 -22z"/>
<path d="M6105 7439 c-57 -33 -54 -39 5 -9 22 11 40 16 40 11 0 -5 -16 -30
-35 -55 -24 -32 -30 -46 -20 -46 8 0 14 3 13 8 -1 4 12 29 30 56 49 76 45 80
-33 35z"/>
<path d="M6001 7421 c-15 -10 -7 -31 12 -31 8 0 7 3 -2 9 -11 7 -10 11 5 20
11 6 15 10 9 11 -5 0 -16 -4 -24 -9z"/>
<path d="M6560 7422 c0 -6 -8 -13 -17 -15 -16 -4 -16 -5 -1 -6 18 -1 34 16 24
26 -3 4 -6 1 -6 -5z"/>
<path d="M6462 7385 c0 -16 2 -22 5 -12 2 9 2 23 0 30 -3 6 -5 -1 -5 -18z"/>
<path d="M6191 7376 c-14 -14 -32 -26 -40 -27 -10 0 -11 -3 -4 -5 6 -3 23 2
37 11 l25 17 3 -48 3 -48 38 33 c20 18 37 37 37 43 0 5 -12 -4 -26 -21 -14
-17 -30 -31 -34 -31 -5 0 -10 23 -12 51 l-3 51 -24 -26z"/>
<path d="M6290 7394 c0 -17 39 -92 51 -100 14 -8 39 22 38 45 0 9 -5 3 -11
-12 -13 -37 -29 -30 -48 21 -16 41 -30 63 -30 46z"/>
<path d="M6380 7378 c0 -19 2 -20 10 -8 13 19 13 30 0 30 -5 0 -10 -10 -10
-22z"/>
<path d="M6417 7350 c19 -20 25 -22 35 -11 11 11 10 13 0 6 -8 -4 -23 1 -35
11 -22 18 -22 18 0 -6z"/>
<path d="M6561 6378 c-30 -18 -66 -49 -80 -68 -23 -31 -21 -31 15 7 22 23 65
54 95 67 30 14 47 26 39 26 -9 0 -40 -15 -69 -32z"/>
<path d="M6737 6399 c7 -7 15 -10 18 -7 3 3 -2 9 -12 12 -14 6 -15 5 -6 -5z"/>
<path d="M6850 6384 c0 -7 52 -25 57 -20 2 2 -10 8 -26 14 -17 6 -31 9 -31 6z"/>
<path d="M6940 6345 c14 -8 30 -14 35 -14 6 0 -1 6 -15 14 -14 8 -29 14 -35
14 -5 0 1 -6 15 -14z"/>
<path d="M6737 6329 c7 -7 15 -10 18 -7 3 3 -2 9 -12 12 -14 6 -15 5 -6 -5z"/>
<path d="M7015 6315 c17 -8 37 -14 45 -14 8 0 -1 7 -20 14 -46 18 -64 17 -25
0z"/>
<path d="M6699 6277 c26 -28 31 -32 31 -19 0 4 -13 16 -28 26 l-27 19 24 -26z"/>
<path d="M7088 6293 c7 -3 16 -2 19 1 4 3 -2 6 -13 5 -11 0 -14 -3 -6 -6z"/>
<path d="M6424 6214 c-14 -31 -23 -58 -21 -60 2 -2 15 23 30 56 14 33 23 60
21 60 -3 0 -16 -25 -30 -56z"/>
<path d="M5462 6230 c0 -14 2 -19 5 -12 2 6 2 18 0 25 -3 6 -5 1 -5 -13z"/>
<path d="M5571 6220 c-1 -14 -4 -36 -6 -50 l-6 -25 11 25 c6 13 9 36 7 50 l-4
25 -2 -25z"/>
<path d="M6665 6220 c10 -11 20 -20 23 -20 3 0 -3 9 -13 20 -10 11 -20 20 -23
20 -3 0 3 -9 13 -20z"/>
<path d="M5452 6175 c0 -16 2 -22 5 -12 2 9 2 23 0 30 -3 6 -5 -1 -5 -18z"/>
<path d="M6635 6170 c10 -11 20 -20 23 -20 3 0 -3 9 -13 20 -10 11 -20 20 -23
20 -3 0 3 -9 13 -20z"/>
<path d="M5671 6158 c0 -9 -4 -25 -7 -35 -5 -17 -5 -17 6 0 6 10 9 25 7 35 -4
15 -5 15 -6 0z"/>
<path d="M5551 6124 c0 -11 3 -14 6 -6 3 7 2 16 -1 19 -3 4 -6 -2 -5 -13z"/>
<path d="M6355 6062 c-24 -46 -63 -100 -100 -138 -34 -35 -54 -59 -44 -54 34
19 119 124 154 192 20 38 35 71 33 73 -2 2 -21 -31 -43 -73z"/>
<path d="M6589 6123 c12 -24 31 -39 31 -25 0 5 -10 17 -21 28 -22 19 -22 19
-10 -3z"/>
<path d="M5646 6085 c-9 -26 -7 -32 5 -12 6 10 9 21 6 23 -2 3 -7 -2 -11 -11z"/>
<path d="M6540 6074 c0 -5 7 -18 15 -28 8 -11 15 -16 15 -10 0 5 -7 18 -15 28
-8 11 -15 16 -15 10z"/>
<path d="M6730 6030 c8 -5 22 -9 30 -9 10 0 8 3 -5 9 -27 12 -43 12 -25 0z"/>
<path d="M6510 6010 c6 -11 13 -20 16 -20 2 0 0 9 -6 20 -6 11 -13 20 -16 20
-2 0 0 -9 6 -20z"/>
<path d="M5927 5976 c-48 -29 -61 -43 -22 -23 31 16 74 46 65 46 -3 0 -22 -10
-43 -23z"/>
<path d="M6470 5983 c0 -6 8 -17 18 -24 16 -13 16 -13 2 6 -8 11 -16 22 -17
24 -2 2 -3 0 -3 -6z"/>
<path d="M6551 5950 c0 -14 28 -72 29 -59 0 4 -7 22 -15 40 -8 19 -14 27 -14
19z"/>
<path d="M6000 5940 c-8 -5 -10 -10 -5 -10 6 0 17 5 25 10 8 5 11 10 5 10 -5
0 -17 -5 -25 -10z"/>
<path d="M6441 5945 c1 -19 18 -51 18 -35 0 8 -4 22 -9 30 -5 8 -9 11 -9 5z"/>
<path d="M6402 5890 c0 -19 2 -27 5 -17 2 9 2 25 0 35 -3 9 -5 1 -5 -18z"/>
<path d="M5333 5892 c10 -11 33 -27 50 -36 56 -27 2 -18 -78 14 -42 17 -92 29
-113 29 -36 -2 -36 -2 9 -8 54 -8 62 -12 204 -126 114 -92 207 -143 274 -152
37 -5 43 -2 108 58 37 35 79 72 93 82 14 10 18 15 10 11 -8 -4 -30 -18 -48
-31 -31 -23 -35 -24 -90 -13 -105 22 -214 62 -220 82 -2 10 -13 18 -23 18 -22
0 -91 58 -83 71 3 5 -10 9 -28 9 -18 0 -44 3 -58 7 -25 6 -25 6 -7 -15z"/>
<path d="M6362 5865 c0 -16 2 -22 5 -12 2 9 2 23 0 30 -3 6 -5 -1 -5 -18z"/>
<path d="M6511 5874 c0 -11 3 -14 6 -6 3 7 2 16 -1 19 -3 4 -6 -2 -5 -13z"/>
<path d="M5041 5871 c-7 -5 -10 -14 -7 -20 10 -16 35 -13 32 4 -3 21 -10 25
-25 16z"/>
<path d="M5998 5863 c6 -2 18 -2 25 0 6 3 1 5 -13 5 -14 0 -19 -2 -12 -5z"/>
<path d="M6443 5810 c0 -30 2 -43 4 -27 2 15 2 39 0 55 -2 15 -4 2 -4 -28z"/>
<path d="M6322 5825 c0 -16 2 -22 5 -12 2 9 2 23 0 30 -3 6 -5 -1 -5 -18z"/>
<path d="M6526 5815 c3 -22 14 -60 25 -84 22 -51 24 -90 6 -115 -27 -37 -80
15 -97 95 -9 43 -9 43 -4 -10 5 -54 9 -61 63 -98 22 -16 24 -16 42 6 11 13 19
36 19 52 0 28 2 29 23 18 14 -7 10 0 -11 17 -24 21 -39 47 -53 94 -13 44 -17
52 -13 25z"/>
<path d="M6255 5829 c-4 -6 -5 -12 -2 -15 2 -3 7 2 10 11 7 17 1 20 -8 4z"/>
<path d="M6271 5769 c-7 -22 -11 -43 -8 -45 2 -2 9 14 16 37 7 22 11 43 8 45
-2 2 -9 -14 -16 -37z"/>
<path d="M6222 5755 c-12 -25 -20 -45 -17 -45 7 0 47 81 43 86 -3 2 -14 -17
-26 -41z"/>
<path d="M6312 5765 c0 -16 2 -22 5 -12 2 9 2 23 0 30 -3 6 -5 -1 -5 -18z"/>
<path d="M6384 5695 c0 -55 1 -76 3 -47 2 29 2 74 0 100 -2 26 -3 2 -3 -53z"/>
<path d="M6302 5710 c0 -14 2 -19 5 -12 2 6 2 18 0 25 -3 6 -5 1 -5 -13z"/>
<path d="M6087 5666 c-3 -8 -23 -24 -44 -35 -21 -11 -34 -20 -30 -21 26 -1 97
54 85 66 -3 3 -8 -2 -11 -10z"/>
<path d="M6140 5650 c-18 -15 -20 -18 -6 -13 16 5 18 3 13 -13 -7 -19 -7 -19
8 0 13 17 21 47 13 46 -2 0 -14 -9 -28 -20z"/>
<path d="M6030 5600 c-21 -7 -21 -8 -5 -9 11 0 27 4 35 9 18 11 5 11 -30 0z"/>
<path d="M6106 5565 l-27 -35 39 0 c25 0 49 8 66 21 l26 20 0 -45 c0 -25 4
-46 9 -46 16 0 60 41 67 62 6 21 7 21 21 2 14 -18 15 -18 8 6 -14 48 -22 54
-28 21 -4 -17 -19 -44 -34 -59 l-28 -27 -3 53 -3 53 -30 -26 c-18 -14 -43 -25
-60 -25 l-30 0 21 30 c30 42 18 38 -14 -5z"/>
<path d="M6462 5575 c0 -16 2 -22 5 -12 2 9 2 23 0 30 -3 6 -5 -1 -5 -18z"/>
<path d="M6381 5568 c0 -13 3 -17 6 -10 4 10 9 8 20 -7 8 -12 18 -21 24 -21 5
0 0 9 -11 20 -11 11 -20 25 -20 30 0 6 -4 10 -10 10 -5 0 -10 -10 -9 -22z"/>
<path d="M1913 12295 c-18 -8 -56 -36 -85 -62 -56 -52 -348 -389 -348 -402 0
-9 716 -621 727 -621 5 0 24 18 44 41 l36 42 -164 140 c-89 77 -163 141 -163
143 0 2 32 40 72 85 114 130 148 137 453 95 119 -17 174 -21 183 -13 7 5 30
31 52 57 l39 47 -162 23 c-185 26 -295 30 -350 11 -21 -7 -40 -11 -42 -9 -2 2
8 28 23 58 40 81 42 164 7 236 -29 58 -84 107 -148 131 -44 16 -135 15 -174
-2z m141 -119 c44 -18 86 -75 93 -125 8 -61 -30 -130 -152 -273 -60 -71 -112
-128 -117 -128 -9 0 -248 199 -248 207 0 7 205 245 236 275 61 57 122 72 188
44z"/>
<path d="M9755 12127 c-258 -94 -472 -172 -474 -174 -6 -4 51 -74 70 -86 10
-6 57 7 157 46 l142 55 135 -156 c74 -85 135 -158 135 -161 0 -3 -33 -67 -74
-141 l-73 -135 46 -53 45 -52 233 462 c128 255 233 467 233 473 -1 17 -77 95
-91 94 -8 0 -225 -78 -484 -172z m396 -54 c-37 -65 -92 -164 -122 -220 -30
-57 -57 -102 -60 -100 -11 4 -221 248 -217 252 2 2 76 31 166 64 89 34 188 74
220 90 31 17 62 30 68 31 7 0 -18 -53 -55 -117z"/>
<path d="M10341 11425 c-223 -135 -408 -248 -413 -253 -9 -9 284 -504 301
-510 13 -4 81 39 81 51 0 7 -54 100 -120 207 -65 107 -115 199 -111 203 5 5
171 106 369 226 l360 217 -31 52 -32 51 -404 -244z"/>
<path d="M1160 11348 c-73 -123 -161 -270 -195 -328 l-63 -105 46 -27 47 -27
77 132 c43 73 82 133 88 135 5 2 170 -92 367 -208 197 -116 362 -212 366 -213
10 -2 72 92 66 97 -2 2 -166 99 -364 216 -198 116 -363 215 -367 218 -4 4 29
67 73 141 43 73 79 136 79 140 0 6 -22 19 -82 49 -3 2 -66 -97 -138 -220z"/>
<path d="M10743 10692 c-238 -113 -433 -211 -433 -216 0 -6 10 -32 23 -57 l22
-46 435 207 c259 124 434 213 432 220 -1 7 -13 31 -25 55 l-22 42 -432 -205z"/>
<path d="M851 10569 c-137 -40 -261 -236 -261 -414 0 -147 131 -272 263 -251
93 15 145 59 286 244 51 67 106 132 123 144 44 30 114 35 156 9 56 -36 73 -75
70 -161 -4 -99 -46 -189 -119 -254 -59 -53 -111 -70 -179 -61 l-48 7 -17 -52
c-9 -28 -15 -53 -13 -56 3 -2 29 -8 58 -14 144 -27 281 51 363 208 66 127 83
235 52 338 -31 104 -137 184 -244 184 -109 -1 -171 -48 -319 -245 -104 -138
-146 -175 -197 -175 -40 0 -95 36 -115 75 -32 63 -4 196 60 284 42 57 98 84
168 79 l55 -3 18 52 18 52 -37 11 c-45 12 -95 12 -141 -1z"/>
<path d="M10908 10322 c-240 -86 -439 -160 -442 -163 -8 -7 117 -355 151 -423
108 -213 356 -265 638 -132 204 96 303 260 266 436 -21 98 -145 435 -161 437
-8 1 -212 -69 -452 -155z m449 -117 c61 -169 70 -228 49 -293 -37 -111 -156
-198 -330 -242 -180 -46 -302 -5 -367 122 -33 65 -109 282 -101 290 12 12 676
247 692 245 9 -1 31 -47 57 -122z"/>
<path d="M385 9635 c-9 -32 -15 -59 -13 -61 2 -1 130 -37 283 -79 393 -107
446 -130 486 -212 41 -85 7 -252 -67 -326 -80 -80 -141 -76 -538 32 -164 45
-300 80 -303 78 -2 -3 -10 -28 -18 -57 -10 -39 -11 -52 -1 -56 6 -2 144 -41
306 -85 334 -91 429 -104 517 -75 70 23 124 73 166 154 91 173 89 350 -5 457
-64 72 -155 110 -488 200 -157 43 -290 80 -297 82 -7 3 -18 -18 -28 -52z"/>
<path d="M10754 9308 c3 -13 9 -40 12 -61 4 -20 10 -39 13 -42 4 -2 74 -11
156 -21 83 -10 151 -18 152 -19 8 -4 92 -398 88 -406 -4 -5 -61 -46 -128 -91
-67 -44 -123 -82 -125 -83 -3 -2 25 -125 30 -130 2 -2 195 132 429 297 l425
301 -15 64 c-12 49 -20 65 -35 68 -12 2 -232 34 -491 70 -258 36 -481 68 -494
71 -21 4 -23 2 -17 -18z m578 -174 c62 -8 169 -21 237 -27 l123 -12 -206 -133
c-113 -73 -208 -134 -212 -135 -4 -1 -18 43 -30 98 -13 55 -30 128 -38 163
-17 73 -29 68 126 46z"/>
<path d="M996 8539 c-3 -8 -20 -112 -39 -232 -20 -120 -37 -220 -39 -222 -2
-2 -192 28 -422 66 -302 50 -421 66 -427 58 -7 -11 -21 -100 -17 -105 5 -3
917 -154 936 -154 17 0 24 29 66 291 26 160 46 293 43 295 -2 2 -25 7 -50 10
-35 5 -48 3 -51 -7z"/>
<path d="M11425 8396 c-361 -49 -450 -64 -453 -76 -6 -35 57 -428 79 -483 62
-160 223 -246 439 -234 222 13 382 96 457 238 26 50 28 62 28 169 0 66 -10
186 -24 283 l-24 167 -26 -1 c-14 -1 -228 -29 -476 -63z m430 -200 c24 -183
19 -262 -21 -318 -61 -86 -151 -128 -315 -149 -194 -25 -340 44 -379 180 -13
42 -53 311 -48 316 3 4 688 101 729 104 14 1 20 -22 34 -133z"/>
<path d="M16 7795 c-3 -11 -6 -38 -6 -60 l0 -40 475 -49 c261 -27 477 -48 479
-45 2 2 7 29 11 59 l7 55 -481 50 c-475 50 -480 50 -485 30z"/>
<path d="M535 5021 c-89 -23 -172 -94 -214 -181 -37 -78 -37 -191 0 -271 32
-68 83 -120 152 -156 45 -24 63 -28 142 -28 78 0 97 4 140 27 69 36 123 91
154 157 37 79 37 192 0 271 -53 111 -156 180 -278 186 -36 2 -79 0 -96 -5z"/>
<path d="M11303 5016 c-103 -33 -182 -113 -213 -214 -25 -81 -25 -113 0 -195
26 -83 88 -155 168 -194 49 -24 69 -28 142 -28 102 0 159 24 231 95 85 85 113
225 68 345 -25 68 -95 142 -164 174 -61 29 -171 37 -232 17z"/>
<path d="M1995 999 c-87 -13 -178 -61 -214 -113 -81 -118 -57 -262 56 -334 53
-33 126 -58 282 -97 156 -39 203 -68 222 -138 14 -52 -10 -117 -55 -152 -34
-26 -130 -55 -183 -55 -48 0 -133 20 -174 41 -64 32 -119 114 -119 178 0 8 -6
11 -16 7 -9 -3 -36 -6 -60 -6 l-45 0 7 -37 c22 -127 113 -233 229 -265 112
-31 271 -26 357 11 172 73 234 279 123 409 -49 56 -132 94 -305 138 -216 54
-250 77 -250 166 0 99 96 155 249 146 122 -7 184 -51 211 -148 l9 -35 56 3
c49 4 55 6 55 26 0 32 -19 84 -47 129 -59 94 -227 149 -388 126z"/>
<path d="M7018 1000 c-174 -30 -292 -127 -349 -285 -30 -82 -37 -262 -15 -358
47 -202 175 -326 356 -346 155 -17 281 19 368 106 47 47 121 189 106 202 -14
12 -104 32 -115 26 -5 -4 -9 -13 -9 -21 0 -29 -49 -111 -88 -146 -59 -53 -116
-72 -209 -66 -128 8 -207 60 -257 168 -52 113 -58 278 -15 415 17 55 31 78 72
120 64 64 121 85 226 85 127 0 213 -57 253 -166 8 -23 17 -33 26 -29 8 3 31 8
53 11 22 4 42 11 45 15 9 14 -40 111 -76 152 -80 91 -237 141 -372 117z"/>
<path d="M2732 513 c-100 -263 -182 -482 -182 -486 0 -4 28 -7 62 -5 l62 3 52
145 52 145 208 0 208 0 57 -145 56 -145 67 -3 c36 -2 66 1 66 5 0 4 -88 222
-194 483 l-195 475 -68 3 -68 2 -183 -477z m267 335 c7 -24 44 -127 82 -229
38 -103 69 -191 69 -198 0 -8 -49 -11 -165 -11 -94 0 -165 4 -165 9 0 5 29 87
64 183 35 95 70 199 77 231 8 31 16 57 20 57 3 0 11 -19 18 -42z"/>
<path d="M3560 505 l0 -485 60 0 60 0 2 382 3 383 255 -382 255 -382 63 -1 62
0 0 485 0 485 -55 0 -55 0 0 -380 c0 -209 -4 -380 -8 -380 -5 0 -123 171 -262
380 l-253 380 -64 0 -63 0 0 -485z"/>
<path d="M4470 935 l0 -55 165 0 165 0 0 -430 0 -430 60 0 60 0 0 430 0 430
160 0 160 0 0 55 0 55 -385 0 -385 0 0 -55z"/>
<path d="M5641 968 c-53 -137 -355 -926 -358 -935 -4 -10 12 -13 59 -13 l63 0
54 150 54 150 207 0 207 0 53 -139 c29 -77 56 -144 60 -151 4 -7 31 -10 72 -8
l66 3 -197 480 -196 480 -68 3 c-62 3 -68 1 -76 -20z m105 -160 c15 -46 53
-152 85 -236 33 -85 59 -155 59 -158 0 -2 -76 -4 -170 -4 -93 0 -170 3 -170 6
0 4 32 91 70 195 39 103 70 191 70 196 0 14 21 83 25 83 2 0 16 -37 31 -82z"/>
<path d="M7660 506 l0 -486 60 0 60 0 2 218 3 217 117 -2 c81 -2 126 -7 146
-17 48 -25 116 -109 214 -263 51 -80 97 -147 104 -150 6 -2 41 -3 77 -1 l66 3
-89 140 c-101 158 -163 234 -223 272 l-41 26 67 17 c86 21 145 62 179 125 55
101 29 252 -56 322 -64 52 -87 56 -398 60 l-288 5 0 -486z m563 360 c112 -55
114 -220 3 -279 -38 -20 -57 -22 -243 -25 l-203 -3 0 166 0 166 203 -3 c173
-3 207 -6 240 -22z"/>
<path d="M8652 628 c4 -353 4 -365 27 -422 46 -117 135 -180 275 -195 151 -17
284 18 360 94 83 82 96 162 96 574 l0 311 -59 0 -60 0 -3 -342 c-5 -387 -10
-421 -72 -476 -46 -40 -97 -56 -186 -56 -124 -1 -196 38 -237 129 -16 36 -18
78 -21 393 l-3 352 -60 0 -61 0 4 -362z"/>
<path d="M9610 935 l0 -55 270 0 c149 0 270 -4 270 -9 0 -5 -8 -15 -17 -22 -9
-8 -142 -170 -295 -361 l-278 -348 0 -60 0 -60 380 0 380 0 0 55 0 55 -311 0
c-304 0 -311 0 -298 19 8 10 143 178 301 372 l288 354 0 58 0 57 -345 0 -345
0 0 -55z"/>
</g>
</svg>
