<?xml version="1.0" standalone="no"?>
<!DOCTYPE svg PUBLIC "-//W3C//DTD SVG 20010904//EN"
 "http://www.w3.org/TR/2001/REC-SVG-20010904/DTD/svg10.dtd">
<svg version="1.0" xmlns="http://www.w3.org/2000/svg"
 width="453.000000pt" height="453.000000pt" viewBox="0 0 453.000000 453.000000"
 preserveAspectRatio="xMidYMid meet">

<g transform="translate(0.000000,453.000000) scale(0.100000,-0.100000)"
fill="#000000" stroke="none">
<path d="M2008 3693 l-437 -398 0 -772 -1 -773 -150 0 -150 0 0 -90 0 -90 240
0 240 0 0 820 0 820 63 58 c34 32 150 139 257 238 l195 179 3 -449 c1 -247 0
-451 -3 -454 -2 -3 -39 26 -81 64 -42 38 -98 88 -125 112 l-49 44 0 -716 0
-716 90 0 90 0 0 511 c0 318 4 509 10 507 5 -1 92 -77 194 -168 l186 -165 0
-342 0 -343 255 0 255 0 0 90 0 90 -165 0 -165 0 0 289 0 290 -147 132 c-82
73 -150 135 -153 137 -3 2 -7 339 -10 748 l-5 745 -437 -398z"/>
<path d="M1723 1463 c251 -2 663 -2 915 0 251 1 45 2 -458 2 -503 0 -709 -1
-457 -2z"/>
<path d="M1314 1372 c-35 -23 -44 -88 -16 -123 24 -28 79 -31 98 -4 17 22 18
35 4 35 -5 0 -10 -6 -10 -14 0 -18 -33 -30 -60 -21 -39 12 -38 94 1 116 18 9
27 7 50 -10 31 -23 40 -13 13 13 -16 17 -61 21 -80 8z"/>
<path d="M1460 1360 c-13 -13 -20 -33 -20 -57 0 -47 8 -59 45 -73 58 -22 110
27 98 94 -10 53 -84 75 -123 36z m80 0 c4 0 13 -13 20 -29 25 -61 -40 -119
-84 -76 -24 25 -21 81 6 100 13 8 29 13 36 10 8 -3 17 -5 22 -5z"/>
<path d="M1622 1303 l1 -78 6 60 6 60 39 -57 c21 -32 43 -58 47 -58 5 0 8 35
7 78 l-1 77 -6 -65 -6 -65 -26 40 c-14 22 -31 50 -38 63 -22 41 -31 23 -29
-55z"/>
<path d="M1786 1364 c-30 -30 -19 -50 39 -69 20 -7 30 -17 30 -30 0 -27 -40
-32 -66 -9 -18 16 -19 16 -19 0 0 -22 46 -39 79 -28 20 7 26 15 26 38 0 25 -5
31 -42 42 -30 10 -43 20 -43 32 0 24 34 31 60 13 26 -19 37 -11 15 11 -21 20
-59 21 -79 0z"/>
<path d="M1900 1370 c0 -5 14 -10 30 -10 l30 0 0 -67 c0 -36 3 -63 8 -59 4 5
7 33 7 65 0 54 1 56 28 59 53 6 26 22 -38 22 -37 0 -65 -4 -65 -10z"/>
<path d="M2050 1305 c0 -43 4 -75 10 -75 6 0 10 14 10 31 0 29 2 30 38 27 32
-3 37 -7 40 -30 2 -16 8 -28 13 -28 12 0 12 36 -1 60 -7 13 -7 21 0 25 17 10
11 44 -9 55 -11 5 -38 10 -60 10 l-41 0 0 -75z m95 30 c0 -16 -8 -21 -37 -23
-35 -3 -38 -1 -38 23 0 24 3 26 38 23 29 -2 37 -7 37 -23z"/>
<path d="M2210 1318 c0 -74 6 -86 45 -93 50 -10 68 12 73 89 3 44 1 66 -7 66
-7 0 -11 -22 -11 -59 0 -64 -13 -85 -52 -79 -21 3 -23 9 -26 71 -4 84 -22 89
-22 5z"/>
<path d="M2383 1365 c-27 -19 -35 -62 -18 -101 21 -50 77 -54 115 -9 7 8 10
18 7 22 -4 3 -15 -5 -26 -18 -16 -20 -23 -22 -47 -14 -25 9 -29 16 -32 52 -2
33 1 44 19 56 23 17 47 13 66 -11 7 -9 16 -13 20 -9 12 12 -30 47 -56 47 -15
0 -36 -7 -48 -15z"/>
<path d="M2510 1370 c0 -5 11 -10 25 -10 24 0 25 -2 25 -65 0 -37 4 -65 10
-65 6 0 10 28 10 65 0 63 1 65 25 65 14 0 25 5 25 10 0 6 -27 10 -60 10 -33 0
-60 -4 -60 -10z"/>
<path d="M2661 1354 c-44 -56 -14 -128 54 -128 46 0 75 31 75 80 0 71 -86 102
-129 48z m103 -26 c13 -37 0 -77 -28 -84 -48 -12 -85 30 -72 82 13 49 83 50
100 2z"/>
<path d="M2820 1305 c0 -43 4 -75 10 -75 6 0 10 14 10 31 0 29 2 30 38 27 32
-3 37 -7 40 -30 2 -16 8 -28 13 -28 13 0 11 44 -3 58 -9 9 -9 15 0 24 34 34 1
68 -67 68 l-41 0 0 -75z m95 30 c0 -16 -8 -21 -37 -23 -35 -3 -38 -1 -38 23 0
24 3 26 38 23 29 -2 37 -7 37 -23z"/>
<path d="M2996 1310 c-29 -80 -29 -80 -17 -80 5 0 11 9 14 20 7 29 60 27 80
-2 23 -33 20 -5 -6 66 -12 33 -27 61 -33 63 -6 2 -23 -28 -38 -67z m53 -7 c1
-7 -8 -13 -19 -13 -23 0 -25 12 -8 43 11 21 11 21 19 2 4 -11 8 -26 8 -32z"/>
<path d="M320 985 c0 -72 4 -125 9 -125 6 0 11 19 13 43 l3 42 102 5 c119 6
143 19 143 81 0 29 -6 42 -26 58 -23 18 -41 21 -135 21 l-109 0 0 -125z m221
85 c26 -14 26 -66 0 -80 -11 -5 -58 -10 -105 -10 -83 0 -86 1 -92 25 -3 14 -3
36 0 50 6 24 9 25 92 25 47 0 94 -5 105 -10z"/>
<path d="M722 1103 c-12 -5 -112 -205 -112 -224 0 -22 29 -6 40 21 l12 30 94
0 93 0 16 -30 c9 -16 22 -30 30 -30 12 0 10 11 -9 53 -13 28 -34 75 -46 102
-12 28 -29 58 -38 68 -14 16 -52 21 -80 10z m83 -73 c14 -27 25 -54 25 -60 0
-6 -28 -10 -70 -10 -78 0 -83 6 -54 63 38 75 63 77 99 7z"/>
<path d="M900 1095 c0 -12 13 -15 60 -15 l60 0 0 -105 c0 -87 3 -105 15 -105
12 0 15 18 15 105 l0 105 60 0 c47 0 60 3 60 15 0 13 -22 15 -135 15 -113 0
-135 -2 -135 -15z"/>
<path d="M1220 990 c0 -90 3 -121 12 -118 7 3 12 20 12 39 l1 34 94 3 c103 3
121 -4 121 -49 0 -19 5 -29 15 -29 24 0 20 67 -5 80 -21 11 -20 12 5 42 20 23
25 38 20 57 -12 50 -27 56 -155 60 l-120 3 0 -122z m221 80 c26 -15 26 -66 -1
-80 -11 -6 -58 -10 -108 -8 l-87 3 -3 33 c-6 59 -1 62 93 62 48 0 95 -5 106
-10z"/>
<path d="M1550 990 c0 -100 3 -120 15 -120 13 0 15 20 15 120 0 100 -2 120
-15 120 -12 0 -15 -20 -15 -120z"/>
<path d="M1694 1096 c-56 -25 -72 -126 -31 -187 l23 -34 123 -3 c96 -2 122 0
119 10 -3 9 -38 14 -116 18 -72 3 -116 10 -124 18 -7 7 -13 36 -13 67 0 82 12
89 145 93 86 3 110 7 110 18 0 19 -191 19 -236 0z"/>
<path d="M1980 990 c0 -100 3 -120 15 -120 13 0 15 20 15 120 0 100 -2 120
-15 120 -12 0 -15 -20 -15 -120z"/>
<path d="M2177 1098 c-9 -7 -39 -61 -66 -120 -43 -94 -48 -108 -31 -108 11 0
22 11 29 30 l10 30 96 0 97 0 11 -30 c7 -18 19 -30 29 -30 15 0 13 10 -18 78
-20 42 -40 88 -46 102 -22 56 -71 77 -111 48z m60 -26 c10 -6 53 -94 53 -108
0 -2 -34 -4 -75 -4 -41 0 -75 2 -75 4 0 2 10 25 21 52 27 62 46 75 76 56z"/>
<path d="M2510 1015 c0 -88 2 -98 25 -120 22 -23 31 -25 125 -25 82 0 100 3
100 15 0 12 -17 15 -94 15 -123 0 -126 3 -126 121 0 72 -3 89 -15 89 -12 0
-15 -17 -15 -95z"/>
<path d="M2854 1101 c-39 -17 -64 -60 -64 -110 0 -66 28 -107 82 -122 58 -15
154 -6 187 19 54 40 58 140 7 191 -24 23 -35 26 -109 28 -45 2 -92 -1 -103 -6z
m197 -50 c29 -35 26 -101 -6 -131 -21 -20 -35 -23 -99 -24 -66 0 -78 2 -100
23 -19 18 -26 35 -26 63 0 80 28 99 139 95 63 -2 76 -6 92 -26z"/>
<path d="M3162 989 c2 -87 7 -124 16 -127 8 -2 12 10 12 41 l0 45 106 4 c97 3
107 5 125 27 24 30 24 72 0 102 -18 22 -27 24 -140 27 l-122 4 3 -123z m234
66 c15 -23 15 -27 0 -50 -16 -24 -21 -25 -111 -25 l-95 0 0 50 0 50 95 0 c90
0 95 -1 111 -25z"/>
<path d="M3534 1100 c-36 -14 -54 -50 -54 -108 0 -57 19 -106 45 -116 9 -3 66
-6 126 -6 90 0 109 3 109 15 0 12 -19 15 -108 15 -93 0 -111 3 -125 18 -10 10
-17 26 -17 35 0 15 15 17 125 17 104 0 125 2 125 15 0 13 -21 15 -125 15 -114
0 -125 2 -125 18 0 10 6 27 14 37 12 17 30 20 125 23 86 3 111 7 111 18 0 11
-21 14 -102 13 -57 0 -113 -4 -124 -9z"/>
<path d="M3810 1095 c0 -12 19 -15 115 -15 63 0 115 -3 115 -7 0 -20 -50 -54
-108 -75 -76 -27 -122 -65 -122 -102 l0 -26 130 0 c80 0 130 4 130 10 0 6 -43
10 -108 10 -60 0 -111 3 -115 6 -15 16 14 40 92 76 102 47 131 71 131 110 l0
28 -130 0 c-109 0 -130 -2 -130 -15z"/>
</g>
</svg>
